<svg xmlns="http://www.w3.org/2000/svg" viewBox="0 0 170 170"><defs><style>.cls-1{isolation:isolate;}.cls-2{fill:#fff;}.cls-3{fill:#a7b5d1;}.cls-4{fill:#ffd261;}.cls-5{fill:#ffea94;}.cls-6{fill:#b5b5b6;mix-blend-mode:multiply;}.cls-7{fill:#231815;}.cls-8{fill:#ffb65f;}.cls-9{fill:#465ec0;}</style></defs><title>자산 52game</title><g class="cls-1"><g id="레이어_2" data-name="레이어 2"><g id="레이어_1-2" data-name="레이어 1"><path class="cls-2" d="M85,0a85,85,0,1,0,85,85A85,85,0,0,0,85,0Zm79.22,79.64a4.38,4.38,0,1,1-5.37-3.1A4.39,4.39,0,0,1,164.22,79.64Zm-7.8-19.7a4.38,4.38,0,1,1-3.1,5.37A4.38,4.38,0,0,1,156.42,59.94ZM92.39,8a78,78,0,0,1,58.55,37.25l-3.43,2.06A74,74,0,0,0,92,12ZM150,85a65,65,0,1,1-33.59-56.91A65,65,0,0,1,150,85ZM78.6,3.16l.59,11.1,6.91-.36.14,2.73-10,.53L75.51,3.32ZM72,3.89l2.36,13.66-3,.53L68.94,4.42ZM61.1,6.33l9.29,11.59L67.1,19l-1.73-2.27-5.12,1.62-.12,2.85-3.05,1L58,7.29Zm-9,3,1.23,2.43L47,15l1.42,2.81L54.05,15l1.21,2.4-5.61,2.84L52,24.92l-2.77,1.4L43,14Zm-13.28,13,2.35,3.24A74,74,0,0,0,10.73,84.17l-4,0A78,78,0,0,1,38.82,22.34ZM7.41,104.51a4.38,4.38,0,1,1,5.37,3.1A4.39,4.39,0,0,1,7.41,104.51Zm11,19.82a4.38,4.38,0,1,1,3.1-5.37A4.4,4.4,0,0,1,18.45,124.33ZM28.58,140a4.38,4.38,0,1,1,3.1-5.37A4.38,4.38,0,0,1,28.58,140Zm12.77,10.76a4.38,4.38,0,1,1,3.1-5.37A4.38,4.38,0,0,1,41.35,150.75Zm15.15,8a4.38,4.38,0,1,1,3.1-5.37A4.38,4.38,0,0,1,56.5,158.77Zm48,1.46a76.65,76.65,0,0,1-34,1.4l.72-3.93a73.86,73.86,0,0,0,60.65-16.09l2.57,3.06A76.92,76.92,0,0,1,104.47,160.23ZM148.15,133a4.38,4.38,0,1,1,3.1-5.37A4.38,4.38,0,0,1,148.15,133Zm7.69-15.33a4.38,4.38,0,1,1,3.1-5.37A4.38,4.38,0,0,1,155.84,117.65Zm4.31-16a4.38,4.38,0,1,1,3.1-5.37A4.38,4.38,0,0,1,160.15,101.63Z"/><polygon class="cls-2" points="60.55 10.33 60.35 15.46 63.65 14.42 60.55 10.33"/><path class="cls-3" d="M116.41,28.09l18,72.38a11,11,0,0,1,1.59,5.58c0,12.37-22.82,22.4-51,22.4s-51-10-51-22.4A11.15,11.15,0,0,1,36,100L53.82,28a65,65,0,1,0,62.59.13Z"/><path class="cls-4" d="M67.37,85A16.84,16.84,0,0,1,79,74.31a16.52,16.52,0,0,1,4.44-.55c.07-6,0-11.9-.18-17.81l2-.07c.2,6,.25,12,.18,18A16.87,16.87,0,0,1,99,84.52c17.32,2.17,30.88,8.26,35.37,16l-18-72.38A65,65,0,0,0,53.82,28L36,100C40.39,93.05,52.17,87.49,67.37,85ZM100,57.25l2,0a79.91,79.91,0,0,0,2.17,20.32l-1.94.46A82,82,0,0,1,100,57.25Zm-7.59.13a73,73,0,0,1,1,16.1l-2-.09a70.25,70.25,0,0,0-1-15.66Zm-15,1.15a86.34,86.34,0,0,1,.18,10.91l-2-.09a82.44,82.44,0,0,0-.18-10.66ZM68,62.14a83.94,83.94,0,0,1,1.12,16.38l-2-.06a82.34,82.34,0,0,0-1.09-16Z"/><path class="cls-5" d="M117.16,106.05a15.3,15.3,0,0,1-4.15,5.1C101.1,120.78,77.5,123,71.13,122.48c-13.74-1-17-11.46-15.58-16.43H34.43L36,100A11.15,11.15,0,0,0,34,106.05c0,12.37,22.82,22.4,51,22.4s51-10,51-22.4a11,11,0,0,0-1.59-5.58l1.38,5.58Z"/><path class="cls-5" d="M55.55,106.05a7.51,7.51,0,0,1,.27-.76C58.17,99.9,61.39,96.74,67,94.94A16.84,16.84,0,0,1,67.37,85c-15.2,2.46-27,8-31.42,14.93l-1.52,6.09Z"/><path class="cls-5" d="M99,84.52a17.26,17.26,0,0,1,.58,1.76q.23.89.36,1.77c4.84-.14,9.15.42,12.06,2.18,6.5,3.93,7.84,10.39,5.14,15.82h18.61l-1.38-5.58C129.9,92.78,116.34,86.69,99,84.52Z"/><path class="cls-5" d="M87.62,106.92c-.53.13-1.06.24-1.58.33.95,4.37.7,7.22-.71,9.1s-3.52,2.53-7.07,2.53c-.51,0-1,0-1.59,0l.1-1.74c3.8.21,6.08-.36,7.17-1.8s1.21-4,.35-7.84a16.91,16.91,0,0,1-7.77-1.4h-21c-1.41,5,1.84,15.39,15.58,16.43,6.37.49,30-1.7,41.88-11.33a15.3,15.3,0,0,0,4.15-5.1H90A17.83,17.83,0,0,1,87.62,106.92Z"/><path class="cls-6" d="M87.62,106.92c-.53.13-1.06.24-1.58.33.95,4.37.7,7.22-.71,9.1s-3.52,2.53-7.07,2.53c-.51,0-1,0-1.59,0l.1-1.74c3.8.21,6.08-.36,7.17-1.8s1.21-4,.35-7.84a16.91,16.91,0,0,1-7.77-1.4h-21c-1.41,5,1.84,15.39,15.58,16.43,6.37.49,30-1.7,41.88-11.33a15.3,15.3,0,0,0,4.15-5.1H90A17.83,17.83,0,0,1,87.62,106.92Z"/><path class="cls-5" d="M70.24,101.28a4.37,4.37,0,0,1-.45.72c-1.31,1.74-3.52,2.54-7.08,2.54-.5,0-1,0-1.58-.05l.1-1.74c3.8.21,6.08-.35,7.17-1.8A4.27,4.27,0,0,0,69,99.63,16.62,16.62,0,0,1,67,94.94c-5.6,1.8-8.82,5-11.17,10.35a7.51,7.51,0,0,0-.27.76h21A17,17,0,0,1,70.24,101.28Z"/><path class="cls-6" d="M70.24,101.28a4.37,4.37,0,0,1-.45.72c-1.31,1.74-3.52,2.54-7.08,2.54-.5,0-1,0-1.58-.05l.1-1.74c3.8.21,6.08-.35,7.17-1.8A4.27,4.27,0,0,0,69,99.63,16.62,16.62,0,0,1,67,94.94c-5.6,1.8-8.82,5-11.17,10.35a7.51,7.51,0,0,0-.27.76h21A17,17,0,0,1,70.24,101.28Z"/><path class="cls-5" d="M100.91,90.5c1.73,1.1,4.3,1,7.63-.38l.65,1.62A14.76,14.76,0,0,1,103.73,93a6.86,6.86,0,0,1-3.64-1,16.56,16.56,0,0,1-.53,3c.38,3.26,1.4,5.43,3,6.46s4.3,1,7.63-.38l.65,1.62A14.71,14.71,0,0,1,105.4,104a6.87,6.87,0,0,1-3.75-1,8.14,8.14,0,0,1-3.25-4.88,16.86,16.86,0,0,1-8.36,8h27.12c2.7-5.43,1.36-11.89-5.14-15.82-2.91-1.76-7.22-2.32-12.06-2.18a16,16,0,0,1,.18,1.82A4.52,4.52,0,0,0,100.91,90.5Z"/><path class="cls-6" d="M100.91,90.5c1.73,1.1,4.3,1,7.63-.38l.65,1.62A14.76,14.76,0,0,1,103.73,93a6.86,6.86,0,0,1-3.64-1,16.56,16.56,0,0,1-.53,3c.38,3.26,1.4,5.43,3,6.46s4.3,1,7.63-.38l.65,1.62A14.71,14.71,0,0,1,105.4,104a6.87,6.87,0,0,1-3.75-1,8.14,8.14,0,0,1-3.25-4.88,16.86,16.86,0,0,1-8.36,8h27.12c2.7-5.43,1.36-11.89-5.14-15.82-2.91-1.76-7.22-2.32-12.06-2.18a16,16,0,0,1,.18,1.82A4.52,4.52,0,0,0,100.91,90.5Z"/><path class="cls-7" d="M83.94,115.29c-1.09,1.44-3.37,2-7.17,1.8l-.1,1.74c.56,0,1.08,0,1.59,0,3.55,0,5.76-.8,7.07-2.53s1.66-4.73.71-9.1a14.88,14.88,0,0,1-1.75.2C85.15,111.31,85,113.86,83.94,115.29Z"/><path class="cls-7" d="M68.4,101c-1.09,1.45-3.37,2-7.17,1.8l-.1,1.74c.55,0,1.08.05,1.58.05,3.56,0,5.77-.8,7.08-2.54a4.37,4.37,0,0,0,.45-.72A15.11,15.11,0,0,1,69,99.63,4.27,4.27,0,0,1,68.4,101Z"/><path class="cls-7" d="M101.65,103a6.87,6.87,0,0,0,3.75,1,14.71,14.71,0,0,0,5.46-1.24l-.65-1.62c-3.33,1.35-5.89,1.48-7.63.38s-2.64-3.2-3-6.46a17.07,17.07,0,0,1-1.16,3.06A8.14,8.14,0,0,0,101.65,103Z"/><path class="cls-7" d="M100.09,92a6.86,6.86,0,0,0,3.64,1,14.76,14.76,0,0,0,5.46-1.24l-.65-1.62c-3.33,1.35-5.9,1.48-7.63.38a4.52,4.52,0,0,1-.77-.63A17.27,17.27,0,0,1,100.09,92Z"/><path class="cls-8" d="M83.41,73.76a16.52,16.52,0,0,0-4.44.55A16.84,16.84,0,0,0,67.37,85a110.65,110.65,0,0,1,15.79-1.36C83.28,80.38,83.37,77.07,83.41,73.76Z"/><path class="cls-8" d="M96.16,84.2c-.06-.48-.11-1-.14-1.49l1.75-.1c0,.63.09,1.21.17,1.77l1.08.14A16.87,16.87,0,0,0,85.41,73.88q-.07,4.91-.25,9.78C88.94,83.66,92.62,83.85,96.16,84.2Z"/><path class="cls-8" d="M67,94.94l2-.64a51.21,51.21,0,0,0-2.08-7.46l1.65-.57a54.07,54.07,0,0,1,2.11,7.51c6.16-1.87,16.94-4.81,26.44-5.56a16,16,0,0,1-1-4c-3.54-.35-7.22-.54-11-.54,0,.87,0,1.75-.09,2.63l-2-.09c0-.84.05-1.69.09-2.53A110.65,110.65,0,0,0,67.37,85,16.84,16.84,0,0,0,67,94.94Z"/><path class="cls-8" d="M99,88.1l1,0q-.13-.89-.36-1.77A17.26,17.26,0,0,0,99,84.52l-1.08-.14A12.82,12.82,0,0,0,99,88.1Z"/><path class="cls-8" d="M86,107.25c.52-.09,1-.2,1.58-.33a17.83,17.83,0,0,0,2.42-.87H85.76C85.86,106.46,86,106.86,86,107.25Z"/><path class="cls-8" d="M76.52,106.05a16.91,16.91,0,0,0,7.77,1.4c-.1-.45-.21-.92-.34-1.4Z"/><path class="cls-8" d="M70.24,101.28a17,17,0,0,0,6.28,4.77H84c-.38-1.46-.87-3.07-1.5-4.87l1.65-.57c.7,2,1.25,3.82,1.66,5.44H90a16.86,16.86,0,0,0,8.36-8,19.4,19.4,0,0,1-.7-4.39l1.74-.1c0,.5.07,1,.12,1.43a16.56,16.56,0,0,0,.53-3L100,92a7.52,7.52,0,0,1-2.87-3.76c-9.5.75-20.28,3.69-26.44,5.56C71.31,97.16,71.16,99.57,70.24,101.28Z"/><path class="cls-8" d="M100.14,89.87a16,16,0,0,0-.18-1.82l-1,0A6.1,6.1,0,0,0,100.14,89.87Z"/><path class="cls-8" d="M69,94.3l-2,.64A16.62,16.62,0,0,0,69,99.63,12,12,0,0,0,69,94.3Z"/><path class="cls-8" d="M84,106.05c.13.48.24,1,.34,1.4a14.88,14.88,0,0,0,1.75-.2c-.09-.39-.18-.79-.28-1.2Z"/><path class="cls-8" d="M84.1,100.61l-1.65.57c.63,1.8,1.12,3.41,1.5,4.87h1.81C85.35,104.43,84.8,102.63,84.1,100.61Z"/><path class="cls-8" d="M68.56,86.27l-1.65.57A51.21,51.21,0,0,1,69,94.3l1.68-.52A54.07,54.07,0,0,0,68.56,86.27Z"/><path class="cls-8" d="M69,99.63a15.11,15.11,0,0,0,1.2,1.65c.92-1.71,1.07-4.12.43-7.5L69,94.3A12,12,0,0,1,69,99.63Z"/><path class="cls-8" d="M97.7,93.69a19.4,19.4,0,0,0,.7,4.39A17.07,17.07,0,0,0,99.56,95c0-.46-.1-.93-.12-1.43Z"/><path class="cls-8" d="M97.77,82.61l-1.75.1c0,.52.08,1,.14,1.49l1.78.18C97.86,83.82,97.8,83.24,97.77,82.61Z"/><path class="cls-8" d="M97.94,84.38l-1.78-.18a16,16,0,0,0,1,4L99,88.1A12.82,12.82,0,0,1,97.94,84.38Z"/><path class="cls-8" d="M100,92l.11,0a17.27,17.27,0,0,0,0-2.16A6.1,6.1,0,0,1,99,88.1l-1.84.12A7.52,7.52,0,0,0,100,92Z"/><polygon class="cls-9" points="52.04 24.92 49.65 20.19 55.26 17.35 54.05 14.95 48.43 17.79 47.01 14.98 53.33 11.79 52.1 9.36 43.02 13.95 49.27 26.32 52.04 24.92"/><path class="cls-9" d="M57.08,22.12l3.05-1,.12-2.85,5.12-1.62L67.1,19l3.29-1L61.1,6.33,58,7.29Zm3.47-11.79,3.1,4.09-3.3,1Z"/><rect class="cls-9" x="70.1" y="4.05" width="3.09" height="13.86" transform="translate(-0.82 12.36) rotate(-9.8)"/><polygon class="cls-9" points="86.24 16.63 86.1 13.9 79.19 14.26 78.6 3.16 75.51 3.32 76.24 17.16 86.24 16.63"/><path class="cls-9" d="M103.44,156.37a73,73,0,0,1-32.29,1.33l-.72,3.93a77.86,77.86,0,0,0,63.94-17l-2.57-3.06A73,73,0,0,1,103.44,156.37Z"/><path class="cls-9" d="M147.51,47.3l3.43-2.06A78,78,0,0,0,92.39,8L92,12A74,74,0,0,1,147.51,47.3Z"/><path class="cls-9" d="M41.17,25.58l-2.35-3.24A78,78,0,0,0,6.73,84.12l4,0A74,74,0,0,1,41.17,25.58Z"/><path class="cls-9" d="M158.69,68.41a4.38,4.38,0,1,0-5.37-3.1A4.38,4.38,0,0,0,158.69,68.41Z"/><path class="cls-9" d="M158.85,76.54a4.38,4.38,0,1,0,5.37,3.1A4.38,4.38,0,0,0,158.85,76.54Z"/><path class="cls-9" d="M157.88,93.16a4.38,4.38,0,1,0,5.37,3.1A4.38,4.38,0,0,0,157.88,93.16Z"/><path class="cls-9" d="M153.57,109.18a4.38,4.38,0,1,0,5.37,3.1A4.38,4.38,0,0,0,153.57,109.18Z"/><path class="cls-9" d="M145.88,124.51a4.38,4.38,0,1,0,5.37,3.1A4.38,4.38,0,0,0,145.88,124.51Z"/><path class="cls-9" d="M54.23,150.3a4.38,4.38,0,1,0,5.37,3.1A4.39,4.39,0,0,0,54.23,150.3Z"/><path class="cls-9" d="M39.08,142.29a4.38,4.38,0,1,0,5.37,3.09A4.38,4.38,0,0,0,39.08,142.29Z"/><path class="cls-9" d="M26.31,131.52a4.38,4.38,0,1,0,5.37,3.1A4.38,4.38,0,0,0,26.31,131.52Z"/><path class="cls-9" d="M16.18,115.86a4.38,4.38,0,1,0,5.37,3.1A4.39,4.39,0,0,0,16.18,115.86Z"/><path class="cls-9" d="M15.88,102.24a4.38,4.38,0,1,0-3.1,5.37A4.39,4.39,0,0,0,15.88,102.24Z"/><path class="cls-9" d="M75.6,69.35l2,.09a86.34,86.34,0,0,0-.18-10.91l-2,.16A82.44,82.44,0,0,1,75.6,69.35Z"/><path class="cls-9" d="M85.41,73.88c.07-6,0-12-.18-18l-2,.07c.2,5.91.25,11.86.18,17.81A16.65,16.65,0,0,1,85.41,73.88Z"/><path class="cls-9" d="M85,83.65h.16q.18-4.87.25-9.78a16.65,16.65,0,0,0-2-.12c0,3.31-.13,6.62-.25,9.91Z"/><path class="cls-9" d="M83.16,83.67c0,.84,0,1.69-.09,2.53l2,.09c0-.88.05-1.76.09-2.63H85Z"/><path class="cls-9" d="M91.41,73.39l2,.09a73,73,0,0,0-1-16.1l-2,.35A70.25,70.25,0,0,1,91.41,73.39Z"/><path class="cls-9" d="M104.13,77.61A79.91,79.91,0,0,1,102,57.29l-2,0a82,82,0,0,0,2.23,20.82Z"/><path class="cls-9" d="M67.09,78.46l2,.06A83.94,83.94,0,0,0,68,62.14l-2,.33A82.34,82.34,0,0,1,67.09,78.46Z"/></g></g></g></svg>