<svg xmlns="http://www.w3.org/2000/svg" viewBox="0 0 170 170"><defs><style>.cls-1{fill:#fff;}.cls-2{fill:#ffea94;}.cls-3{fill:#231815;}.cls-4{fill:#ffb65f;}.cls-5{fill:#16b877;}.cls-6{fill:#f76a52;}.cls-7{fill:#a2e3c9;}</style></defs><title>자산 51game</title><g id="레이어_2" data-name="레이어 2"><g id="레이어_1-2" data-name="레이어 1"><path class="cls-1" d="M85,170A85,85,0,1,0,0,85,85,85,0,0,0,85,170ZM42,147.63l-.08,5.09L39,148.56l-4.87,1.49L37.18,146l-2.92-4.16,4.81,1.65,3-4.06L42,144.49l4.81,1.65Zm99.19-95.31a65,65,0,0,1-18.44,85.58l-.27.2-1.68,1.16a64.92,64.92,0,0,1-20.26,8.86q-2.46.6-5,1a64.71,64.71,0,0,1-21.27,0c-1.45-.24-2.89-.53-4.31-.87a64.4,64.4,0,0,1-18.47-7.53c-.57-.34-1.13-.7-1.69-1.07s-1.16-.76-1.74-1.15A65,65,0,1,1,139,48.82C139.77,50,140.49,51.13,141.18,52.32Zm-83,108.3-3.79-3.39L50,159.78l2.06-4.65-3.78-3.4,5.06.52,2.06-4.64,1.06,5,5.06.52-4.4,2.55Zm76.35-16.21a77.51,77.51,0,0,1-66,16.88,2,2,0,0,1,.81-3.92,73.8,73.8,0,0,0,62.56-16,2,2,0,1,1,2.59,3Zm16-9.76-4.12-3-4.11,3,1.56-4.84-4.11-3h5.08L146.4,122l1.57,4.84h5.09l-4.11,3ZM160,118.59l-4.69-2L152,120.45l.44-5.07-4.69-2,5-1.15.43-5.07,2.63,4.36,5-1.15-3.33,3.84Zm.58-18.66-2.38,4.5-.72-5-5-.87L157,96.28l-.71-5,3.53,3.66,4.57-2.24L162,97.16l3.54,3.65Zm1.38-17.43-1.31,4.92-1.83-4.75-5.08.27,3.95-3.2L155.84,75l4.27,2.77,3.95-3.21-1.31,4.92L167,82.23ZM156.52,61l3.12-4-.17,5.08,4.78,1.73-4.88,1.41-.17,5.08-2.85-4.21-4.89,1.41,3.13-4-2.85-4.22ZM117.86,17.42a2,2,0,0,1,2.71-.83A77.59,77.59,0,0,1,151.4,46.17a2,2,0,0,1-.72,2.74,2,2,0,0,1-2.74-.73,73.47,73.47,0,0,0-29.25-28.06A2,2,0,0,1,117.86,17.42ZM101.5,14.16l3,1c-.26,1.31.57,2.51,2.24,3.07,1.2.39,2.29.09,2.57-.77.34-1.05-.41-1.76-2.6-3-2.69-1.47-3.85-3.16-3-5.64s3.6-3,6.58-2,4.54,3.48,3.86,6l-3-1a2.3,2.3,0,0,0-1.84-2.64c-1.37-.46-2.31-.16-2.57.64-.32,1,.58,1.65,3,3,2.83,1.64,3.37,3.48,2.72,5.45-.83,2.52-3.71,3.27-6.65,2.3C102.49,19.56,100.7,17,101.5,14.16ZM88.78,12.24l3.15.45c0,1.34,1,2.38,2.75,2.63,1.24.17,2.26-.32,2.38-1.21.16-1.09-.7-1.66-3.08-2.47-2.9-1-4.34-2.44-4-5S93,3,96.13,3.46,101.22,6.1,101,8.73l-3.17-.45A2.3,2.3,0,0,0,95.56,6c-1.43-.2-2.3.26-2.42,1.08C93,8.1,94,8.6,96.6,9.54c3.07,1.11,3.93,2.83,3.63,4.89-.37,2.62-3.08,3.87-6.14,3.43C90.7,17.38,88.49,15.19,88.78,12.24Zm-2-9.41.09,2.68-7.2.24.09,2.82,6.61-.22L86.5,11l-6.61.22.1,3L87.35,14l.09,2.69L77,17,76.53,3.17ZM65.93,4.68c3.71-.85,6.71.81,7.91,3.53l-3,.7a3.59,3.59,0,0,0-4.16-1.48,4.27,4.27,0,0,0-3.28,5.31,4.29,4.29,0,0,0,5.27,3.34c1.94-.45,3.23-2.09,3.18-3.37l3-.71c.21,2.82-1.92,6-5.66,6.86a7.12,7.12,0,0,1-8.85-5.42A7.12,7.12,0,0,1,65.93,4.68ZM49.16,10.44c3.44-1.62,6.72-.63,8.48,1.77l-2.83,1.33c-.86-1.06-2.58-1.41-4.38-.56a4.27,4.27,0,0,0-2.08,5.88A4.28,4.28,0,0,0,54.21,21c1.8-.84,2.72-2.72,2.39-4l2.83-1.33c.81,2.7-.6,6.25-4.07,7.89a7.12,7.12,0,0,1-9.8-3.42A7.13,7.13,0,0,1,49.16,10.44ZM31.84,21.74l4.68,6.14c1.34,1.76,3.22,2.19,4.82,1s1.69-3.15.35-4.91L37,17.8l2.46-1.87,4.68,6.14c2.38,3.12,1.91,6.69-1.12,9s-6.59,1.82-9-1.31l-4.68-6.13Zm-9,8.23c2.07-2.3,5-2.77,7.08-1.13l-2.13,2.38a2.32,2.32,0,0,0-3.16.63c-1,1.07-1.06,2-.44,2.61.77.69,1.75.13,4-1.51,2.63-1.94,4.53-1.7,6.08-.32,2,1.77,1.51,4.71-.55,7-2.28,2.54-5.32,3.17-7.62,1.3l2.12-2.37c1.1.76,2.53.49,3.71-.83.83-.94,1-2.06.32-2.66s-1.78-.33-3.76,1.2c-2.43,1.87-4.44,2.26-6.38.53S20.79,32.3,22.87,30ZM18.35,44.22a2,2,0,0,1,3.4,2.11A73.52,73.52,0,0,0,10.62,85.17a2,2,0,0,1-4,0A77.58,77.58,0,0,1,18.35,44.22ZM4.57,103.72l4.93-1.24.35-5.07,2.7,4.31,4.93-1.24-3.26,3.9,2.7,4.31-4.72-1.9-3.26,3.9.35-5.07Zm12.06,23.37-.8-5-5-.79L15.33,119l-.8-5,3.6,3.59,4.53-2.32-2.31,4.54,3.6,3.59-5-.79Zm6.41,3,4.36,2.61,3.84-3.33-1.15,4.95,4.36,2.62-5.07.45-1.14,5-2-4.68-5.06.44L25,134.76Z"/><path class="cls-2" d="M85,20A65,65,0,0,0,48.06,138.48a15.41,15.41,0,0,1,1.87-1.12,65.44,65.44,0,0,1,1.55-12.68l1.69.41a60.64,60.64,0,0,0-1.45,11.46,16.79,16.79,0,0,1,20.81,7.7,16.9,16.9,0,0,1,6.85-4.75c.1-.37.19-.75.27-1.13a38.09,38.09,0,0,1-3.2-7.47l1.67-.52a37.9,37.9,0,0,0,2,5.12c.21-1.78.33-3.74.4-5.88l1.74,0a54,54,0,0,1-.78,8.38l.45.72a16.78,16.78,0,0,1,15.33,4.68,16.76,16.76,0,0,1,5.64-6.33,70.43,70.43,0,0,1-3.45-6.48c-.56-1.13-1.13-2.3-1.74-3.48l1.55-.8c.61,1.19,1.19,2.37,1.75,3.52,1.14,2.3,2.2,4.45,3.38,6.35l.48-.24a44.42,44.42,0,0,0-.14-11.42l1.73-.22a47.68,47.68,0,0,1,.24,10.86,16.68,16.68,0,0,1,14,1.3c-.06-1.61-.06-2.82-.06-3.86a35.24,35.24,0,0,0-.65-7.58l1.72-.3a38.24,38.24,0,0,1,.68,7.88c0,1.27,0,2.8.1,5l.29.22a65,65,0,0,0,18.44-85.58L128.5,65.18a2,2,0,0,1-1.43.6,2,2,0,0,1-1.4-.58,2,2,0,0,1,0-2.83l6.94-7h-4.16v-8h8v4.11L139,48.82A64.94,64.94,0,0,0,85,20ZM54.06,32.66l6.33,4.83-4.83,6.32L49.23,39Zm11.57,82.45a2,2,0,0,1-2.8.38L48.36,104.43a2,2,0,0,1,2.43-3.18l14.47,11.06A2,2,0,0,1,65.63,115.11Zm49.84-40.73c-3.42-.29-8.32.51-11.58,3l-.34-.44a15.69,15.69,0,0,1-1.15,4.81A26.81,26.81,0,0,1,114.67,81l-.37,1.71c-4.27-.92-9.48,0-13,1.18a16.81,16.81,0,0,1-25.16,4.66,14.61,14.61,0,0,1-2.15.15c-.26,0-.53,0-.8,0-5.13-.21-12.68-2.74-17.14-7.77l1.31-1.16c4.12,4.65,11.13,7,15.9,7.19.4,0,.79,0,1.16,0A16.86,16.86,0,0,1,91.09,59.09a15.14,15.14,0,0,1,2,.69c-.45-4.78-3.26-9-8.53-12.68l1-1.43c6.09,4.32,9.15,9.23,9.32,15a16.86,16.86,0,0,1,8.7,14.79,20.54,20.54,0,0,1,12-2.79Zm10.91,22.38L124,104.37,116.43,102l2.35-7.6Z"/><path class="cls-3" d="M74.46,86.91c-.37,0-.76,0-1.16,0-4.77-.2-11.78-2.54-15.9-7.19l-1.31,1.16c4.46,5,12,7.56,17.14,7.77.27,0,.54,0,.8,0a14.61,14.61,0,0,0,2.15-.15A16.29,16.29,0,0,1,74.46,86.91Z"/><path class="cls-3" d="M85.6,45.67l-1,1.43c5.27,3.73,8.08,7.9,8.53,12.68a15.67,15.67,0,0,1,1.8.86C94.75,54.9,91.69,50,85.6,45.67Z"/><path class="cls-3" d="M103.62,75.43a14.27,14.27,0,0,1-.07,1.46l.34.44c3.26-2.44,8.16-3.24,11.58-3l.15-1.74A20.54,20.54,0,0,0,103.62,75.43Z"/><path class="cls-3" d="M114.3,82.67l.37-1.71a26.81,26.81,0,0,0-12.27.74,15.9,15.9,0,0,1-1.06,2.15C104.82,82.67,110,81.75,114.3,82.67Z"/><path class="cls-4" d="M103.62,75.43a16.86,16.86,0,0,0-8.7-14.79c0,.42,0,.84,0,1.27l-1.74-.08a15.5,15.5,0,0,0-.06-2,15.14,15.14,0,0,0-2-.69A16.86,16.86,0,0,0,74.46,86.91a7.3,7.3,0,0,0,4.79-1.49l1.21,1.26a7.68,7.68,0,0,1-4.28,1.83,16.81,16.81,0,0,0,25.16-4.66l-.06,0-.56-1.65c.55-.19,1.11-.36,1.68-.52a15.69,15.69,0,0,0,1.15-4.81l-.71-1C103.09,75.75,103.36,75.6,103.62,75.43ZM87.06,75h0a2.06,2.06,0,0,1-2.51,1.46l-2.08-.55A2.05,2.05,0,0,1,81,73.36h0a2,2,0,0,1,2.5-1.45l2.09.55A2.06,2.06,0,0,1,87.06,75Zm1.75-6.6h0a2.06,2.06,0,0,1-2.51,1.45l-2.08-.55a2.05,2.05,0,0,1-1.45-2.51h0a2,2,0,0,1,2.5-1.45l2.09.55A2.05,2.05,0,0,1,88.81,68.36Z"/><path class="cls-4" d="M79.25,85.42a7.3,7.3,0,0,1-4.79,1.49,16.29,16.29,0,0,0,1.72,1.6,7.68,7.68,0,0,0,4.28-1.83Z"/><path class="cls-4" d="M93.18,61.83l1.74.08c0-.43,0-.85,0-1.27a15.67,15.67,0,0,0-1.8-.86A15.5,15.5,0,0,1,93.18,61.83Z"/><path class="cls-4" d="M102.84,75.94l.71,1a14.27,14.27,0,0,0,.07-1.46C103.36,75.6,103.09,75.75,102.84,75.94Z"/><path class="cls-4" d="M101.28,83.87l.06,0a15.9,15.9,0,0,0,1.06-2.15c-.57.16-1.13.33-1.68.52Z"/><path class="cls-3" d="M85.61,72.45l-2.09-.55A2,2,0,0,0,81,73.35h0a2.05,2.05,0,0,0,1.45,2.51l2.08.55A2.06,2.06,0,0,0,87.06,75h0A2.06,2.06,0,0,0,85.61,72.45Z"/><path class="cls-3" d="M87.36,65.85l-2.09-.55a2,2,0,0,0-2.5,1.45h0a2.05,2.05,0,0,0,1.45,2.51l2.08.55a2.06,2.06,0,0,0,2.51-1.45h0A2.05,2.05,0,0,0,87.36,65.85Z"/><path class="cls-3" d="M53.17,125.09l-1.69-.41a65.44,65.44,0,0,0-1.55,12.68,14.41,14.41,0,0,1,1.79-.81A60.64,60.64,0,0,1,53.17,125.09Z"/><path class="cls-3" d="M79.65,138.37c-.08.38-.17.76-.27,1.13l.77-.27C80,139,79.82,138.66,79.65,138.37Z"/><path class="cls-3" d="M82.26,129.67l-1.74,0c-.07,2.14-.19,4.1-.4,5.88.43.89.88,1.74,1.36,2.55A54,54,0,0,0,82.26,129.67Z"/><path class="cls-3" d="M106.46,124.35l-1.73.22a44.42,44.42,0,0,1,.14,11.42,15.47,15.47,0,0,1,1.83-.78A47.68,47.68,0,0,0,106.46,124.35Z"/><path class="cls-3" d="M81.93,138.77l-.45-.72-.18.85Z"/><path class="cls-3" d="M78.12,130.38l-1.67.52a38.09,38.09,0,0,0,3.2,7.47c.2-.9.35-1.86.47-2.87A37.9,37.9,0,0,1,78.12,130.38Z"/><path class="cls-3" d="M81.3,138.9l.18-.85c-.48-.81-.93-1.66-1.36-2.55-.12,1-.27,2-.47,2.87.17.29.33.58.5.86C80.53,139.11,80.91,139,81.3,138.9Z"/><path class="cls-3" d="M122.35,132.65a38.24,38.24,0,0,0-.68-7.88l-1.72.3a35.24,35.24,0,0,1,.65,7.58c0,1,0,2.25.06,3.86a16.18,16.18,0,0,1,1.79,1.17C122.35,135.45,122.35,133.92,122.35,132.65Z"/><path class="cls-3" d="M101,129.88c-.56-1.15-1.14-2.33-1.75-3.52l-1.55.8c.61,1.18,1.18,2.35,1.74,3.48a70.43,70.43,0,0,0,3.45,6.48,17.23,17.23,0,0,1,1.49-.89C103.21,134.33,102.15,132.18,101,129.88Z"/><path class="cls-4" d="M97.26,143.45a16.78,16.78,0,0,0-15.33-4.68,24.73,24.73,0,0,0,4.88,5.61l-1.12,1.33a26.14,26.14,0,0,1-4.77-5.32,12.51,12.51,0,0,1-4.58,7l-1-1.42a11,11,0,0,0,4.06-6.44,16.9,16.9,0,0,0-6.85,4.75,16.94,16.94,0,0,1,1.74,4.85,64.71,64.71,0,0,0,21.27,0A17.46,17.46,0,0,1,96,146.8,16.48,16.48,0,0,1,97.26,143.45Z"/><path class="cls-4" d="M75.32,145.94l1,1.42a12.51,12.51,0,0,0,4.58-7c-.26-.38-.52-.76-.77-1.16l-.77.27A11,11,0,0,1,75.32,145.94Z"/><path class="cls-4" d="M80.92,140.39a26.14,26.14,0,0,0,4.77,5.32l1.12-1.33a24.73,24.73,0,0,1-4.88-5.61l-.63.13C81.18,139.41,81.06,139.91,80.92,140.39Z"/><path class="cls-4" d="M80.15,139.23c.25.4.51.78.77,1.16.14-.48.26-1,.38-1.49C80.91,139,80.53,139.11,80.15,139.23Z"/><path class="cls-4" d="M104.87,136l-.48.24c.12.2.25.38.38.57C104.81,136.53,104.83,136.26,104.87,136Z"/><path class="cls-4" d="M116.6,134.82a16.73,16.73,0,0,0-9.9.39c-.12,1.19-.29,2.36-.52,3.51a15.47,15.47,0,0,0,2.63,2.55l-1,1.4a16,16,0,0,1-2.07-1.88c-.26,1-.55,2-.89,3l-1.65-.58a35.37,35.37,0,0,0,1.15-4q-.74-1-1.41-2a16.76,16.76,0,0,0-5.64,6.33,17.25,17.25,0,0,1,3.27,4.67,64.92,64.92,0,0,0,20.26-8.86c-.06-1-.11-1.95-.13-2.75A16.8,16.8,0,0,0,116.6,134.82Z"/><path class="cls-4" d="M122.47,138.1l.27-.2-.29-.22C122.46,137.81,122.46,138,122.47,138.1Z"/><path class="cls-4" d="M103.16,143.16l1.65.58c.34-1,.63-2,.89-3-.49-.52-1-1.06-1.39-1.63A35.37,35.37,0,0,1,103.16,143.16Z"/><path class="cls-4" d="M106.18,138.72c.23-1.15.4-2.32.52-3.51a15.47,15.47,0,0,0-1.83.78c0,.27-.06.54-.1.81A19.78,19.78,0,0,0,106.18,138.72Z"/><path class="cls-4" d="M120.66,136.51c0,.8.07,1.71.13,2.75l1.68-1.16c0-.14,0-.29,0-.42A16.18,16.18,0,0,0,120.66,136.51Z"/><path class="cls-4" d="M104.77,136.8c-.13-.19-.26-.37-.38-.57a17.23,17.23,0,0,0-1.49.89q.67,1.06,1.41,2C104.49,138.38,104.64,137.6,104.77,136.8Z"/><path class="cls-4" d="M107.77,142.67l1-1.4a15.47,15.47,0,0,1-2.63-2.55c-.14.69-.31,1.38-.48,2.07A16,16,0,0,0,107.77,142.67Z"/><path class="cls-4" d="M104.31,139.16c.44.57.9,1.11,1.39,1.63.17-.69.34-1.38.48-2.07a19.78,19.78,0,0,1-1.41-1.92C104.64,137.6,104.49,138.38,104.31,139.16Z"/><path class="cls-4" d="M96,146.8a17.46,17.46,0,0,0-.43,2.34q2.53-.42,5-1a17.25,17.25,0,0,0-3.27-4.67A16.48,16.48,0,0,0,96,146.8Z"/><path class="cls-4" d="M62.05,136a16.79,16.79,0,0,0-10.33.56c0,.92-.11,1.88-.16,2.91,0,.4-.05.82-.07,1.24A64.4,64.4,0,0,0,70,148.23a17.18,17.18,0,0,1,2.57-4A16.79,16.79,0,0,0,62.05,136Z"/><path class="cls-4" d="M49.93,137.36a15.41,15.41,0,0,0-1.87,1.12c.58.39,1.16.78,1.74,1.15,0-.08,0-.18,0-.26C49.85,138.67,49.89,138,49.93,137.36Z"/><path class="cls-4" d="M51.72,136.55a14.41,14.41,0,0,0-1.79.81c0,.65-.08,1.31-.11,2,0,.08,0,.18,0,.26.56.37,1.12.73,1.69,1.07,0-.42,0-.84.07-1.24C51.61,138.43,51.67,137.47,51.72,136.55Z"/><path class="cls-4" d="M70,148.23c1.42.34,2.86.63,4.31.87a16.94,16.94,0,0,0-1.74-4.85A17.18,17.18,0,0,0,70,148.23Z"/><path class="cls-5" d="M65.26,112.31,50.79,101.25a2,2,0,0,0-2.43,3.18l14.47,11.06a2,2,0,0,0,2.8-.38A2,2,0,0,0,65.26,112.31Z"/><path class="cls-6" d="M136.39,55.33h-3.8l-6.94,7a2,2,0,0,0,0,2.83,2,2,0,0,0,1.4.58,2,2,0,0,0,1.43-.6l12.68-12.86c-.69-1.19-1.41-2.36-2.17-3.5l-2.62,2.66Z"/><rect class="cls-7" x="117.43" y="95.41" width="7.96" height="7.96" transform="translate(-9.33 186.14) rotate(-72.87)"/><rect class="cls-6" x="50.83" y="34.25" width="7.96" height="7.96" transform="translate(-8.85 58.57) rotate(-52.62)"/><polygon class="cls-7" points="136.39 47.37 128.43 47.37 128.43 55.33 132.59 55.33 136.39 51.48 136.39 47.37"/><polygon class="cls-7" points="136.39 51.48 132.59 55.33 136.39 55.33 136.39 51.48"/><path class="cls-5" d="M8.62,87.17a2,2,0,0,0,2-2A73.52,73.52,0,0,1,21.75,46.33a2,2,0,0,0-3.4-2.11,77.58,77.58,0,0,0-11.73,41A2,2,0,0,0,8.62,87.17Z"/><path class="cls-5" d="M132,141.36a73.8,73.8,0,0,1-62.56,16,2,2,0,0,0-.81,3.92,77.86,77.86,0,0,0,66-16.88,2,2,0,1,0-2.59-3Z"/><path class="cls-5" d="M118.69,20.12a73.47,73.47,0,0,1,29.25,28.06,2,2,0,1,0,3.46-2,77.59,77.59,0,0,0-30.83-29.58,2,2,0,1,0-1.88,3.53Z"/><path class="cls-5" d="M28.49,36.29c2-1.53,2.94-1.93,3.76-1.2s.51,1.72-.32,2.66c-1.18,1.32-2.61,1.59-3.71.83L26.1,41c2.3,1.87,5.34,1.24,7.62-1.3,2.06-2.31,2.52-5.25.55-7-1.55-1.38-3.45-1.62-6.08.32-2.22,1.64-3.2,2.2-4,1.51-.62-.56-.52-1.54.44-2.61a2.32,2.32,0,0,1,3.16-.63L30,28.84c-2.07-1.64-5-1.17-7.08,1.13s-2.62,5.18-.76,6.85S26.06,38.16,28.49,36.29Z"/><path class="cls-5" d="M43,31.06c3-2.3,3.5-5.87,1.12-9l-4.68-6.14L37,17.8l4.68,6.14C43,25.7,43,27.62,41.34,28.85s-3.48.79-4.82-1l-4.68-6.14-2.46,1.88,4.68,6.13C36.44,32.88,40,33.37,43,31.06Z"/><path class="cls-5" d="M55.36,23.6c3.47-1.64,4.88-5.19,4.07-7.89L56.6,17c.33,1.24-.59,3.12-2.39,4a4.28,4.28,0,0,1-5.86-2.14A4.27,4.27,0,0,1,50.43,13c1.8-.85,3.52-.5,4.38.56l2.83-1.33c-1.76-2.4-5-3.39-8.48-1.77a7.13,7.13,0,0,0-3.6,9.74A7.12,7.12,0,0,0,55.36,23.6Z"/><path class="cls-5" d="M69.2,18.86c3.74-.87,5.87-4,5.66-6.86l-3,.71c0,1.28-1.24,2.92-3.18,3.37a4.29,4.29,0,0,1-5.27-3.34,4.27,4.27,0,0,1,3.28-5.31A3.59,3.59,0,0,1,70.8,8.91l3-.7c-1.2-2.72-4.2-4.38-7.91-3.53a7.12,7.12,0,0,0-5.58,8.76A7.12,7.12,0,0,0,69.2,18.86Z"/><polygon class="cls-5" points="87.44 16.67 87.35 13.98 79.99 14.23 79.89 11.26 86.5 11.04 86.41 8.35 79.8 8.57 79.71 5.75 86.91 5.51 86.82 2.83 76.53 3.17 76.99 17.02 87.44 16.67"/><path class="cls-5" d="M94.09,17.86c3.06.44,5.77-.81,6.14-3.43.3-2.06-.56-3.78-3.63-4.89C94,8.6,93,8.1,93.14,7.07c.12-.82,1-1.28,2.42-1.08a2.3,2.3,0,0,1,2.27,2.29l3.17.45c.22-2.63-1.81-4.83-4.87-5.27S90.36,4.15,90,6.62s1.07,4,4,5c2.38.81,3.24,1.38,3.08,2.47-.12.89-1.14,1.38-2.38,1.21-1.75-.25-2.78-1.29-2.75-2.63l-3.15-.45C88.49,15.19,90.7,17.38,94.09,17.86Z"/><path class="cls-5" d="M105.74,20.63c2.94,1,5.82.22,6.65-2.3.65-2,.11-3.81-2.72-5.45-2.39-1.38-3.29-2.05-3-3,.26-.8,1.2-1.1,2.57-.64a2.3,2.3,0,0,1,1.84,2.64l3,1c.68-2.55-.92-5.06-3.86-6s-5.8-.34-6.58,2,.34,4.17,3,5.64c2.19,1.21,2.94,1.92,2.6,3-.28.86-1.37,1.16-2.57.77-1.67-.56-2.5-1.76-2.24-3.07l-3-1C100.7,17,102.49,19.56,105.74,20.63Z"/><polygon class="cls-5" points="26.25 137.65 28.24 142.33 29.39 137.38 34.45 136.93 30.09 134.31 31.23 129.36 27.4 132.69 23.04 130.07 25.02 134.76 21.19 138.09 26.25 137.65"/><polygon class="cls-5" points="12.2 106.79 16.92 108.69 14.22 104.38 17.48 100.48 12.55 101.72 9.85 97.41 9.5 102.48 4.57 103.72 9.29 105.62 8.94 110.69 12.2 106.79"/><polygon class="cls-5" points="20.35 119.76 22.66 115.22 18.13 117.54 14.53 113.95 15.33 118.97 10.8 121.28 15.82 122.07 16.63 127.09 18.93 122.56 23.95 123.35 20.35 119.76"/><polygon class="cls-5" points="42.04 144.49 42.12 139.41 39.07 143.47 34.26 141.82 37.18 145.98 34.13 150.05 38.99 148.56 41.91 152.72 41.99 147.63 46.85 146.14 42.04 144.49"/><polygon class="cls-5" points="56.48 152.58 55.42 147.61 53.36 152.25 48.3 151.73 52.08 155.13 50.02 159.78 54.42 157.23 58.2 160.63 57.14 155.65 61.54 153.1 56.48 152.58"/><polygon class="cls-5" points="147.97 126.83 146.4 121.99 144.83 126.83 139.75 126.84 143.86 129.82 142.3 134.66 146.41 131.67 150.53 134.65 148.95 129.81 153.06 126.82 147.97 126.83"/><polygon class="cls-5" points="155.73 111.54 153.1 107.18 152.67 112.25 147.71 113.4 152.4 115.38 151.96 120.45 155.29 116.61 159.98 118.59 157.35 114.23 160.68 110.39 155.73 111.54"/><polygon class="cls-5" points="164.41 92.66 159.84 94.9 156.31 91.25 157.02 96.28 152.45 98.52 157.46 99.39 158.18 104.43 160.56 99.93 165.57 100.81 162.03 97.16 164.41 92.66"/><polygon class="cls-5" points="164.06 74.55 160.11 77.76 155.84 74.99 157.67 79.74 153.72 82.94 158.8 82.67 160.63 87.42 161.94 82.5 167.02 82.23 162.75 79.47 164.06 74.55"/><polygon class="cls-5" points="151.46 67.49 156.35 66.08 159.2 70.29 159.37 65.21 164.25 63.8 159.47 62.07 159.64 56.98 156.52 61 151.74 59.26 154.59 63.48 151.46 67.49"/></g></g></svg>