<svg xmlns="http://www.w3.org/2000/svg" xmlns:xlink="http://www.w3.org/1999/xlink" viewBox="0 0 170 170"><defs><style>.cls-1{fill:none;}.cls-2{fill:#fff;}.cls-3{clip-path:url(#clip-path);}.cls-4{fill:#231815;}.cls-5{fill:#ffb65f;}.cls-6{fill:#f76a52;}.cls-7{fill:#16b877;}.cls-8{fill:#a2e3c9;}</style><clipPath id="clip-path"><circle class="cls-1" cx="85" cy="85" r="85"/></clipPath></defs><title>자산 40game</title><g id="레이어_2" data-name="레이어 2"><g id="레이어_1-2" data-name="레이어 1"><circle class="cls-2" cx="85" cy="85" r="85"/><g class="cls-3"><path class="cls-4" d="M70,87.4l-.37-1.7a3.7,3.7,0,0,0,2.53-2.57c2.06-5.23,0-16.85-4.06-22.62l1.43-1c4,5.68,6.71,18,4.26,24.24A5.37,5.37,0,0,1,70,87.4Z"/><path class="cls-4" d="M42,92.83C35.79,91.62,31.34,87.41,28.37,80L30,79.33c2.73,6.84,6.76,10.7,12.32,11.79Z"/><path class="cls-4" d="M53.1,118.33c-2.27-6.82-2.11-10.56-1.66-14.74l1.73.19c-.44,4.09-.58,7.5,1.59,14Z"/><path class="cls-4" d="M66.54,110l-1.19-1.27c3.87-3.61,4.58-5.68,4.32-6.12,0,0-.7-1-6.16.83L63,101.78c4.68-1.6,7.28-1.63,8.21-.08C72.43,103.81,69.35,107.38,66.54,110Z"/><circle class="cls-5" cx="56.99" cy="88.06" r="16.87"/><rect class="cls-4" x="58.35" y="81.99" width="4.1" height="6.25" rx="2.05" ry="2.05" transform="translate(122.78 168.8) rotate(178.66)"/><rect class="cls-4" x="51.52" y="82.15" width="4.1" height="6.25" rx="2.05" ry="2.05" transform="translate(109.14 169.28) rotate(178.66)"/><polygon class="cls-6" points="82.13 59.2 81.31 54.55 75.74 55.53 79.37 51.2 75.76 48.17 72.13 52.49 72.13 46.84 67.41 46.84 67.41 52.49 63.77 48.17 60.16 51.2 63.79 55.53 58.23 54.55 57.41 59.2 62.97 60.18 58.08 63 60.44 67.09 65.33 64.26 63.4 69.57 67.83 71.19 69.77 65.88 71.7 71.19 76.13 69.57 74.2 64.26 79.09 67.09 81.45 63 76.56 60.18 82.13 59.2"/><polygon class="cls-6" points="38.53 77.83 37.72 73.19 32.15 74.17 35.78 69.84 32.17 66.81 28.54 71.14 28.54 65.48 23.82 65.48 23.82 71.14 20.18 66.81 16.57 69.84 20.2 74.17 14.64 73.19 13.82 77.83 19.38 78.82 14.49 81.64 16.85 85.73 21.74 82.9 19.81 88.21 24.24 89.83 26.18 84.52 28.11 89.83 32.54 88.21 30.61 82.9 35.5 85.73 37.86 81.64 32.97 78.82 38.53 77.83"/><path class="cls-4" d="M100.05,107.4a5.37,5.37,0,0,1-3.79-3.64c-2.45-6.26.29-18.56,4.26-24.24l1.43,1c-4,5.77-6.11,17.39-4.06,22.62a3.7,3.7,0,0,0,2.53,2.57Z"/><path class="cls-4" d="M128,112.83l-.34-1.71c5.55-1.09,9.59-5,12.32-11.79l1.62.65C138.66,107.41,134.21,111.62,128,112.83Z"/><path class="cls-4" d="M120.7,135.73a29.23,29.23,0,0,0-3.76-11.61l1.51-.87a30.7,30.7,0,0,1,4,12.22Z"/><path class="cls-4" d="M104.53,135.73l-1.72-.26a30.74,30.74,0,0,1,4-12.22l1.51.87A29.23,29.23,0,0,0,104.53,135.73Z"/><circle class="cls-5" cx="113.01" cy="108.06" r="16.87"/><rect class="cls-4" x="107.55" y="101.99" width="4.1" height="6.25" rx="2.05" ry="2.05" transform="translate(2.49 -2.54) rotate(1.34)"/><rect class="cls-4" x="114.37" y="102.15" width="4.1" height="6.25" rx="2.05" ry="2.05" transform="translate(2.5 -2.7) rotate(1.34)"/><polygon class="cls-7" points="87.87 79.19 88.69 74.55 94.26 75.53 90.63 71.2 94.24 68.17 97.87 72.5 97.87 66.84 102.59 66.84 102.59 72.5 106.22 68.17 109.84 71.2 106.21 75.53 111.77 74.55 112.59 79.19 107.03 80.18 111.92 83 109.56 87.09 104.67 84.26 106.6 89.57 102.17 91.19 100.23 85.88 98.3 91.19 93.87 89.57 95.8 84.26 90.91 87.09 88.55 83 93.44 80.18 87.87 79.19"/><polygon class="cls-7" points="131.47 97.83 132.28 93.19 137.85 94.17 134.22 89.84 137.83 86.81 141.47 91.14 141.47 85.48 146.18 85.48 146.18 91.14 149.82 86.81 153.43 89.84 149.8 94.17 155.36 93.19 156.18 97.83 150.62 98.82 155.51 101.64 153.15 105.73 148.26 102.9 150.19 108.21 145.76 109.83 143.82 104.52 141.89 109.83 137.46 108.21 139.39 102.9 134.5 105.73 132.14 101.64 137.03 98.82 131.47 97.83"/><rect class="cls-6" x="121.7" y="37.07" width="7.96" height="7.96" transform="translate(17.66 -35.19) rotate(17.13)"/><rect class="cls-8" x="133.7" y="60.07" width="7.96" height="7.96" transform="translate(192.67 -77.49) rotate(86.28)"/><rect class="cls-8" x="33.86" y="34.07" width="7.96" height="7.96" transform="translate(41.54 -15.49) rotate(48.8)"/><ellipse class="cls-4" cx="58.64" cy="135.05" rx="11.95" ry="2.52"/></g></g></g></svg>