<svg xmlns="http://www.w3.org/2000/svg" viewBox="0 0 100 100"><defs><style>.cls-1{fill:#fff;}.cls-2{fill:#ffb65f;}.cls-3{fill:#ffd261;}.cls-4{fill:#231815;}.cls-5{fill:#f76a52;}</style></defs><title>자산 92re</title><g id="레이어_2" data-name="레이어 2"><g id="레이어_1-2" data-name="레이어 1"><path class="cls-1" d="M2.46,61.59c0-5.41,8.1-9.79,18.09-9.79a30.64,30.64,0,0,1,8.82,1.25V40.39c0-5.24,7.64-9.51,17.23-9.76V8.07l27.94,8.11-26.2,7.61v6.84c9.59.25,17.23,4.52,17.23,9.76V55.11A26.63,26.63,0,0,1,79.11,51.8c10,0,18.09,4.38,18.09,9.79v4.9a50,50,0,1,0-94.74-1Z"/><path class="cls-2" d="M74,86.32v6.26c.6.09,1.21.17,1.83.23a49.65,49.65,0,0,0,8.53-6.52,32.11,32.11,0,0,1-5.26.42A32.44,32.44,0,0,1,74,86.32Z"/><path class="cls-2" d="M73.27,78.93A5.75,5.75,0,0,1,74,81.68v3.63a32.43,32.43,0,0,0,5.1.4A32,32,0,0,0,85.66,85a50.41,50.41,0,0,0,6.85-8.73,27.56,27.56,0,0,1-13.4,3.14A33.39,33.39,0,0,1,73.27,78.93Z"/><path class="cls-2" d="M74,93.86l.38-.22-.38,0Z"/><path class="cls-2" d="M79.11,71.37a26.53,26.53,0,0,1-13.54-3.31v5.36a15,15,0,0,1,6.91,4.34,32,32,0,0,0,6.63.69c5.9,0,11.3-1.55,14.56-4.11a48.63,48.63,0,0,0,3.53-7.85v-4.9C97.2,67,89.1,71.37,79.11,71.37Z"/><path class="cls-3" d="M79.11,71.37c10,0,18.09-4.38,18.09-9.78S89.1,51.8,79.11,51.8a26.63,26.63,0,0,0-13.54,3.31v13A26.53,26.53,0,0,0,79.11,71.37Z"/><path class="cls-4" d="M72.91,78.34c.13.2.25.39.36.59a33.39,33.39,0,0,0,5.84.52,27.56,27.56,0,0,0,13.4-3.14c.19-.3.38-.61.56-.93-3.32,2.18-8.34,3.57-14,3.57A31.41,31.41,0,0,1,72.91,78.34Z"/><path class="cls-4" d="M72.48,77.76c.16.19.29.39.43.58a31.41,31.41,0,0,0,6.2.61c5.62,0,10.64-1.39,14-3.57.21-.34.41-.69.6-1C90.41,76.9,85,78.45,79.11,78.45A32,32,0,0,1,72.48,77.76Z"/><path class="cls-4" d="M74,85.31v1a32.44,32.44,0,0,0,5.1.39,32.11,32.11,0,0,0,5.26-.42c.44-.41.87-.82,1.29-1.25a32,32,0,0,1-6.55.67A32.43,32.43,0,0,1,74,85.31Z"/><path class="cls-4" d="M74,93.59l.38,0c.49-.27,1-.54,1.45-.83-.62-.06-1.23-.14-1.83-.23Z"/><path class="cls-2" d="M37.81,85.3A20.22,20.22,0,0,1,34,83.55a27.64,27.64,0,0,1-13.46,3.16,33.35,33.35,0,0,1-4.85-.35,50.15,50.15,0,0,0,8.41,6.42c5.21-.56,9.7-2.36,12.18-5l.73.69c-2.42,2.54-6.6,4.35-11.48,5.1a50.4,50.4,0,0,0,8,3.6,12.66,12.66,0,0,0,2.76-2.12l.73.69a12.74,12.74,0,0,1-2.27,1.84c1,.33,2,.62,3.06.88V85.3Z"/><path class="cls-2" d="M33.06,82.93a8.23,8.23,0,0,1-3.55-4.75,31,31,0,0,1-9,1.27A28.16,28.16,0,0,1,7.67,76.6a50.22,50.22,0,0,0,6.76,8.53,31.7,31.7,0,0,0,6.12.58A26.92,26.92,0,0,0,33.06,82.93Z"/><path class="cls-2" d="M29.39,77.18c0-.05,0-.1,0-.15v-6.9a30.65,30.65,0,0,1-8.82,1.24c-10,0-18.09-4.38-18.09-9.78v3.89a49.6,49.6,0,0,0,4.11,9.29c3.31,2.3,8.42,3.68,14,3.68A30.34,30.34,0,0,0,29.39,77.18Z"/><path class="cls-3" d="M20.55,71.37a30.65,30.65,0,0,0,8.82-1.24V53.05a30.64,30.64,0,0,0-8.82-1.25c-10,0-18.09,4.38-18.09,9.79S10.56,71.37,20.55,71.37Z"/><path class="cls-4" d="M29.51,78.18a4,4,0,0,1-.08-.5A30.65,30.65,0,0,1,20.55,79,26.78,26.78,0,0,1,7.1,75.69l.57.91a28.16,28.16,0,0,0,12.88,2.85A31,31,0,0,0,29.51,78.18Z"/><path class="cls-4" d="M29.43,77.68a4,4,0,0,1,0-.5,30.34,30.34,0,0,1-8.84,1.27c-5.56,0-10.67-1.38-14-3.68.18.31.35.62.53.92A26.78,26.78,0,0,0,20.55,79,30.65,30.65,0,0,0,29.43,77.68Z"/><path class="cls-4" d="M34,83.55c-.33-.2-.65-.4-.95-.62a26.92,26.92,0,0,1-12.51,2.78,31.7,31.7,0,0,1-6.12-.58c.41.42.84.82,1.27,1.23a33.35,33.35,0,0,0,4.85.35A27.64,27.64,0,0,0,34,83.55Z"/><path class="cls-4" d="M36.29,87.82c-2.48,2.6-7,4.4-12.18,5,.47.29.95.56,1.43.83,4.88-.75,9.06-2.56,11.48-5.1Z"/><path class="cls-4" d="M36.29,95.09a12.66,12.66,0,0,1-2.76,2.12l1.22.41A12.74,12.74,0,0,0,37,95.78Z"/><path class="cls-2" d="M63.93,52.78c-3.21,3.38-9.52,5.47-16.46,5.47a28.1,28.1,0,0,1-12.94-2.88c2.57,1.69,4.12,3.86,4.12,6.22v1.67a30.26,30.26,0,0,0,8.82,1.26c5.35,0,10.28-1.27,13.58-3.41.21-2.3,1.87-4.38,4.52-6V48a6.47,6.47,0,0,1-2,4.46Z"/><path class="cls-2" d="M61,72.3V69.58a22.31,22.31,0,0,1-6,2.34l.95,0A32.24,32.24,0,0,1,61,72.3Z"/><path class="cls-2" d="M38.65,64.3v6.22a30.26,30.26,0,0,0,8.82,1.26c5.32,0,10.23-1.26,13.54-3.38V62.31a27.54,27.54,0,0,1-13.54,3.21A31.59,31.59,0,0,1,38.65,64.3Z"/><path class="cls-2" d="M31,52.78l.37-.35a6.51,6.51,0,0,1-2-4.46v5.08a21.81,21.81,0,0,1,3.88,1.57A12.5,12.5,0,0,1,31,52.78Z"/><path class="cls-2" d="M39.18,78c1.77-2.31,5.11-4.16,9.31-5.19l-1,0a31.23,31.23,0,0,1-8.82-1.22v6.23Z"/><path class="cls-2" d="M61,72.3l1.1.2a6,6,0,0,1-1.06-3l0,0Z"/><path class="cls-2" d="M61.07,62.27l-.06,0V68.4a12.34,12.34,0,0,0,2.2-1.77l.72.69a13.26,13.26,0,0,1-2.88,2.23,6,6,0,0,0,1.06,3,26.46,26.46,0,0,1,3.46.92V68.06C63,66.5,61.36,64.49,61.07,62.27Z"/><path class="cls-2" d="M61.05,61.11a11.54,11.54,0,0,0,2.16-1.75l.72.69a13.09,13.09,0,0,1-2.86,2.22c.29,2.22,1.93,4.23,4.5,5.79v-13C62.92,56.73,61.26,58.81,61.05,61.11Z"/><path class="cls-2" d="M34.47,76a20.23,20.23,0,0,0,4.18,1.79V71.56l-.5-.15a7.61,7.61,0,0,1-1.51,2.22L37,74A13.13,13.13,0,0,1,34.47,76Z"/><path class="cls-2" d="M38.61,78.82a21.28,21.28,0,0,1-5.12-2.25,21.75,21.75,0,0,1-4,1.61,8.23,8.23,0,0,0,3.55,4.75,12.68,12.68,0,0,0,3.23-2.37l.73.68a13.54,13.54,0,0,1-3,2.31,20.22,20.22,0,0,0,3.8,1.75V81.68A5.67,5.67,0,0,1,38.61,78.82Z"/><path class="cls-2" d="M38.65,69.16a5.24,5.24,0,0,1-.18,1.31l.18,0Z"/><path class="cls-2" d="M38.65,61.59a5.4,5.4,0,0,1-.26,1.59l.26.08Z"/><path class="cls-2" d="M31,74.58l.72-.69a11.37,11.37,0,0,0,1.81,1.52,12.84,12.84,0,0,0,2.75-2.12l.35.34a7.61,7.61,0,0,0,1.51-2.22,19.11,19.11,0,0,1-5.4-2.61,22,22,0,0,1-3.38,1.33V77s0,.1,0,.15a20.12,20.12,0,0,0,3.17-1.25A11.37,11.37,0,0,1,31,74.58Z"/><path class="cls-2" d="M38.65,69.16V64.3L38,64.1a10.36,10.36,0,0,1-4.29,4.18,19,19,0,0,0,4.74,2.19A5.24,5.24,0,0,0,38.65,69.16Z"/><path class="cls-2" d="M32.75,68.8A11.58,11.58,0,0,1,31,67.32l.72-.69a12.3,12.3,0,0,0,2,1.65A10.36,10.36,0,0,0,38,64.1a16.78,16.78,0,0,1-7-4l.72-.69a15.88,15.88,0,0,0,6.66,3.82,5.4,5.4,0,0,0,.26-1.59c0-2.36-1.55-4.53-4.12-6.22-.45-.24-.87-.49-1.28-.75a21.81,21.81,0,0,0-3.88-1.57V70.13A22,22,0,0,0,32.75,68.8Z"/><path class="cls-2" d="M34,75.7c.16.1.32.21.49.3A13.13,13.13,0,0,0,37,74l-.38-.35A12.2,12.2,0,0,1,34,75.7Z"/><path class="cls-2" d="M33,76.25a22,22,0,0,1-3.57,1.43,4,4,0,0,0,.08.5,21.75,21.75,0,0,0,4-1.61Z"/><path class="cls-2" d="M36.64,73.63l-.35-.34a12.84,12.84,0,0,1-2.75,2.12l.44.29A12.2,12.2,0,0,0,36.64,73.63Z"/><path class="cls-2" d="M32.56,75.93a20.12,20.12,0,0,1-3.17,1.25,4,4,0,0,0,0,.5A22,22,0,0,0,33,76.25Z"/><path class="cls-2" d="M36.29,80.56a12.68,12.68,0,0,1-3.23,2.37c.3.22.62.42.95.62a13.54,13.54,0,0,0,3-2.31Z"/><path class="cls-2" d="M31.73,52.1c3,3.18,9.06,5.15,15.74,5.15s12.71-2,15.74-5.15l.35.33a6.47,6.47,0,0,0,2-4.46V40.39c0,5.41-8.1,9.79-18.1,9.79s-18.1-4.38-18.1-9.79V48a6.51,6.51,0,0,0,2,4.46Z"/><path class="cls-3" d="M47.47,50.18c10,0,18.1-4.38,18.1-9.79,0-5.24-7.64-9.51-17.23-9.76v9.76H46.6V30.63c-9.59.25-17.23,4.52-17.23,9.76C29.37,45.8,37.48,50.18,47.47,50.18Z"/><path class="cls-4" d="M63.93,52.78l-.37-.35c-3,3.16-9.07,5.32-16.09,5.32s-13.09-2.16-16.09-5.32l-.37.35a12.5,12.5,0,0,0,2.24,1.84c.45.24.88.49,1.28.75a28.1,28.1,0,0,0,12.94,2.88C54.41,58.25,60.72,56.16,63.93,52.78Z"/><path class="cls-4" d="M34.53,55.37c-.4-.26-.83-.51-1.28-.75C33.66,54.88,34.08,55.13,34.53,55.37Z"/><path class="cls-4" d="M47.47,57.75c7,0,13.09-2.16,16.09-5.32l-.35-.33c-3,3.18-9.06,5.15-15.74,5.15s-12.71-2-15.74-5.15l-.35.33C34.38,55.59,40.45,57.75,47.47,57.75Z"/><path class="cls-4" d="M47.47,65.52A27.54,27.54,0,0,0,61,62.31v-.72c0-.16,0-.32,0-.48-3.3,2.14-8.23,3.41-13.58,3.41a30.26,30.26,0,0,1-8.82-1.26v1A31.59,31.59,0,0,0,47.47,65.52Z"/><path class="cls-4" d="M61,62.31l.06,0a5.2,5.2,0,0,1-.06-.68Z"/><path class="cls-4" d="M61.07,62.27a13.09,13.09,0,0,0,2.86-2.22l-.72-.69a11.54,11.54,0,0,1-2.16,1.75c0,.16,0,.32,0,.48A5.2,5.2,0,0,0,61.07,62.27Z"/><path class="cls-4" d="M38.65,63.26l-.26-.08a6.55,6.55,0,0,1-.37.92l.63.2Z"/><path class="cls-4" d="M31.73,59.36l-.72.69a16.78,16.78,0,0,0,7,4,6.55,6.55,0,0,0,.37-.92A15.88,15.88,0,0,1,31.73,59.36Z"/><path class="cls-4" d="M38.65,70.52v1a31.23,31.23,0,0,0,8.82,1.22l1,0A31.83,31.83,0,0,1,55,71.92a22.31,22.31,0,0,0,6-2.34V68.4c-3.31,2.12-8.22,3.38-13.54,3.38A30.26,30.26,0,0,1,38.65,70.52Z"/><path class="cls-4" d="M61,69.58l0,0c0-.13,0-.26,0-.39Z"/><path class="cls-4" d="M61.05,69.55a13.26,13.26,0,0,0,2.88-2.23l-.72-.69A12.34,12.34,0,0,1,61,68.4v.76C61,69.29,61,69.42,61.05,69.55Z"/><path class="cls-4" d="M38.65,70.52l-.18,0a5.49,5.49,0,0,1-.32.94l.5.15Z"/><path class="cls-4" d="M38.47,70.47a19,19,0,0,1-4.74-2.19c-.32.18-.64.35-1,.52a19.11,19.11,0,0,0,5.4,2.61A5.49,5.49,0,0,0,38.47,70.47Z"/><path class="cls-4" d="M31.73,66.63l-.72.69a11.58,11.58,0,0,0,1.74,1.48c.34-.17.66-.34,1-.52A12.3,12.3,0,0,1,31.73,66.63Z"/><path class="cls-4" d="M38.65,77.79v.95c.16-.27.34-.53.53-.79Z"/><path class="cls-4" d="M38.65,77.79A20.23,20.23,0,0,1,34.47,76c-.31.2-.64.39-1,.57a21.28,21.28,0,0,0,5.12,2.25l0-.08Z"/><path class="cls-4" d="M31.73,73.89l-.72.69a11.37,11.37,0,0,0,1.55,1.35c.34-.16.67-.34,1-.52A11.37,11.37,0,0,1,31.73,73.89Z"/><path class="cls-4" d="M34,75.7c-.31.19-.64.38-1,.55l.49.32c.34-.18.67-.37,1-.57C34.3,75.91,34.14,75.8,34,75.7Z"/><path class="cls-4" d="M33.54,75.41c-.31.18-.64.36-1,.52l.44.32c.34-.17.67-.36,1-.55Z"/><path class="cls-4" d="M48.34,30.63V23.79l-1.74.51v6.33l.87,0Z"/><path class="cls-4" d="M48.34,40.39V30.63l-.87,0-.87,0v9.76Z"/><polygon class="cls-5" points="48.34 23.79 74.54 16.18 46.6 8.07 46.6 16.18 48.34 16.18 48.34 23.79"/><polygon class="cls-5" points="48.34 16.18 46.6 16.18 46.6 24.3 48.34 23.79 48.34 16.18"/><path class="cls-2" d="M39.45,94.07l.37-.35a8.58,8.58,0,0,1-1.17-1.52v6c0,.15,0,.3,0,.45a49.49,49.49,0,0,0,18.23.84l-.93,0C49,99.54,42.66,97.44,39.45,94.07Z"/><path class="cls-2" d="M72.39,93.29c-.12.14-.25.29-.39.43l.37.35a11.86,11.86,0,0,1-1.67,1.44c1.13-.51,2.23-1.06,3.31-1.65v-.27Q73.18,93.46,72.39,93.29Z"/><path class="cls-2" d="M74,92.58V89.26a5.84,5.84,0,0,1-1,3.15Z"/><path class="cls-2" d="M72.39,93.29q.8.17,1.62.3v-1l-1-.17A8.53,8.53,0,0,1,72.39,93.29Z"/><path class="cls-2" d="M38.65,92.2a5.83,5.83,0,0,1-.84-2.94V98.5l.8.18c0-.15,0-.3,0-.45Z"/><path class="cls-2" d="M55.91,91.46c-7.26,0-13.5-2.31-16.39-5.65-.29-.08-.58-.15-.87-.24V92.2a8.58,8.58,0,0,0,1.17,1.52l.35-.34c3,3.18,9.06,5.16,15.74,5.16a32.43,32.43,0,0,0,5.1-.4V91.06A32.24,32.24,0,0,1,55.91,91.46Z"/><path class="cls-2" d="M61,91.06v7.08a28.43,28.43,0,0,0,3.5-.79,12.13,12.13,0,0,1-1.86-1.57l.72-.69A11.76,11.76,0,0,0,65.72,97a15.27,15.27,0,0,0,5.93-3.57l.35.34c.14-.14.27-.29.39-.43a22.05,22.05,0,0,1-7.68-3.06A27.1,27.1,0,0,1,61,91.06Z"/><path class="cls-2" d="M65.94,89.82A21.88,21.88,0,0,0,73,92.41a5.84,5.84,0,0,0,1-3.15V86.32c-.63-.1-1.25-.22-1.85-.35A15.43,15.43,0,0,1,65.94,89.82Z"/><path class="cls-2" d="M74,85.31V81.68a5.94,5.94,0,0,1-1.16,3.42C73.23,85.18,73.62,85.25,74,85.31Z"/><path class="cls-2" d="M72.16,86c.6.13,1.22.25,1.85.35v-1c-.39-.06-.78-.13-1.16-.21A9.4,9.4,0,0,1,72.16,86Z"/><path class="cls-2" d="M65.94,89.82c-.4.15-.81.28-1.23.41a22.05,22.05,0,0,0,7.68,3.06,8.53,8.53,0,0,0,.64-.88A21.88,21.88,0,0,1,65.94,89.82Z"/><path class="cls-2" d="M62.65,95.78a12.13,12.13,0,0,0,1.86,1.57c.41-.12.81-.26,1.21-.4a11.76,11.76,0,0,1-2.35-1.86Z"/><path class="cls-2" d="M37.81,85.3v4a5.83,5.83,0,0,0,.84,2.94V85.57Z"/><path class="cls-2" d="M38.65,85.57c.29.09.58.16.87.24a8,8,0,0,1-.87-1.19Z"/><path class="cls-2" d="M38.65,84.62a5.8,5.8,0,0,1-.84-2.94V85.3l.84.27Z"/><path class="cls-3" d="M47.47,86.81a31.11,31.11,0,0,1-7.95-1c2.89,3.34,9.13,5.65,16.39,5.65a32.24,32.24,0,0,0,5.1-.4V83.51A26.65,26.65,0,0,1,47.47,86.81Z"/><path class="cls-3" d="M65.57,77a6.28,6.28,0,0,1-1.65,4.06,19,19,0,0,0,8.93,4A5.94,5.94,0,0,0,74,81.68a5.75,5.75,0,0,0-.74-2.75,23.78,23.78,0,0,1-7.7-2.69Z"/><path class="cls-3" d="M61,83.51v7.55a27.1,27.1,0,0,0,3.7-.83,12.2,12.2,0,0,1-2.06-1.72l.72-.69a11.72,11.72,0,0,0,2.57,2A15.43,15.43,0,0,0,72.16,86a19.7,19.7,0,0,1-8.92-4.15A12.78,12.78,0,0,1,61,83.51Z"/><path class="cls-3" d="M72.48,77.76a15,15,0,0,0-6.91-4.34v1.65A21.36,21.36,0,0,0,72.48,77.76Z"/><path class="cls-3" d="M65.57,76.24a23.78,23.78,0,0,0,7.7,2.69c-.11-.2-.23-.39-.36-.59a22.55,22.55,0,0,1-7.34-2.7Z"/><path class="cls-3" d="M65.57,75.64a22.55,22.55,0,0,0,7.34,2.7c-.14-.19-.27-.39-.43-.58a21.36,21.36,0,0,1-6.91-2.69Z"/><path class="cls-3" d="M63.24,81.82A19.7,19.7,0,0,0,72.16,86a9.4,9.4,0,0,0,.69-.87,19,19,0,0,1-8.93-4A9.2,9.2,0,0,1,63.24,81.82Z"/><path class="cls-3" d="M62.65,88.51a12.2,12.2,0,0,0,2.06,1.72c.42-.13.83-.26,1.23-.41a11.72,11.72,0,0,1-2.57-2Z"/><path class="cls-3" d="M39.18,78a30.61,30.61,0,0,0,8.29,1.1c5.33,0,10.23-1.26,13.54-3.38V72.3a32.24,32.24,0,0,0-5.1-.4l-.95,0a31,31,0,0,1-6.47.84C44.29,73.79,41,75.64,39.18,78Z"/><path class="cls-3" d="M61,83.51V76.84a27.54,27.54,0,0,1-13.54,3.21,31.59,31.59,0,0,1-8.82-1.22v5.79a8,8,0,0,0,.87,1.19,31.11,31.11,0,0,0,7.95,1A26.65,26.65,0,0,0,61,83.51Z"/><path class="cls-3" d="M61,76.84v6.67a12.78,12.78,0,0,0,2.23-1.69,8.11,8.11,0,0,1-.59-.58l.72-.68c.17.18.36.36.55.53A6.28,6.28,0,0,0,65.57,77v-.79a14.46,14.46,0,0,1-1.94-1.36A13.36,13.36,0,0,1,61,76.84Z"/><path class="cls-3" d="M61,75.67a12.23,12.23,0,0,0,1.87-1.46c-.08-.08-.16-.15-.23-.23l.37-.35a8.5,8.5,0,0,1-.91-1.13L61,72.3Z"/><path class="cls-3" d="M63,73.63l.35-.34a12,12,0,0,0,2.2,1.78V73.42a26.46,26.46,0,0,0-3.46-.92A8.5,8.5,0,0,0,63,73.63Z"/><path class="cls-3" d="M62.88,74.21c.11-.11.23-.21.33-.32l.72.69c-.09.1-.2.2-.3.3a14.46,14.46,0,0,0,1.94,1.36v-.6a12.32,12.32,0,0,1-2.55-2l-.37.35C62.72,74.06,62.8,74.13,62.88,74.21Z"/><path class="cls-3" d="M65.57,75.64v-.57a12,12,0,0,1-2.2-1.78l-.35.34A12.32,12.32,0,0,0,65.57,75.64Z"/><path class="cls-3" d="M62.65,81.24a8.11,8.11,0,0,0,.59.58,9.2,9.2,0,0,0,.68-.73c-.19-.17-.38-.35-.55-.53Z"/><path class="cls-3" d="M38.61,78.82a5.67,5.67,0,0,0-.8,2.86,5.8,5.8,0,0,0,.84,2.94V78.83Z"/><path class="cls-3" d="M48.49,72.76A31,31,0,0,0,55,71.92,31.83,31.83,0,0,0,48.49,72.76Z"/><path class="cls-3" d="M39.18,78c-.19.26-.37.52-.53.79v.09a31.59,31.59,0,0,0,8.82,1.22A27.54,27.54,0,0,0,61,76.84V75.67c-3.31,2.12-8.21,3.38-13.54,3.38A30.61,30.61,0,0,1,39.18,78Z"/><path class="cls-3" d="M63.63,74.88c-.27-.22-.51-.44-.75-.67A12.23,12.23,0,0,1,61,75.67v1.17A13.36,13.36,0,0,0,63.63,74.88Z"/><path class="cls-3" d="M63.93,74.58l-.72-.69c-.1.11-.22.21-.33.32.24.23.48.45.75.67C63.73,74.78,63.84,74.68,63.93,74.58Z"/><path class="cls-3" d="M38.65,78.74l0,.08h0Z"/><path class="cls-4" d="M55.91,99c-7,0-13.09-2.16-16.09-5.32l-.37.35c3.21,3.37,9.52,5.47,16.46,5.47l.93,0c1.43-.19,2.83-.45,4.22-.76,0,0,0-.09,0-.13A32.63,32.63,0,0,1,55.91,99Z"/><path class="cls-4" d="M72,93.72a15.28,15.28,0,0,1-5.75,3.56h0c1.51-.52,3-1.11,4.44-1.77a11.86,11.86,0,0,0,1.67-1.44Z"/><path class="cls-4" d="M64.83,97.76l.2-.06h0Z"/><path class="cls-4" d="M61.06,98.76c1-.23,2-.48,2.93-.76a26.33,26.33,0,0,1-2.94.63S61.06,98.72,61.06,98.76Z"/><path class="cls-4" d="M65,97.7h0Z"/><path class="cls-4" d="M66.18,97.31l.08,0h0Z"/><path class="cls-4" d="M40.17,93.38l-.35.34c3,3.16,9.07,5.32,16.09,5.32a32.63,32.63,0,0,0,5.14-.41c0-.13,0-.27,0-.4v-.09a32.43,32.43,0,0,1-5.1.4C49.23,98.54,43.2,96.56,40.17,93.38Z"/><path class="cls-4" d="M64.51,97.35a28.43,28.43,0,0,1-3.5.79v.09c0,.13,0,.27,0,.4A26.33,26.33,0,0,0,64,98l.84-.24.2-.06Z"/><path class="cls-4" d="M65.72,97l.53.33A15.28,15.28,0,0,0,72,93.72l-.35-.34A15.27,15.27,0,0,1,65.72,97Z"/><path class="cls-4" d="M65.72,97c-.4.14-.8.28-1.21.4l.52.35h0l1.13-.38.07,0Z"/></g></g></svg>