<svg xmlns="http://www.w3.org/2000/svg" viewBox="0 0 100 100"><defs><style>.cls-1{fill:#fff;}.cls-2{fill:#808ead;}.cls-3{fill:#adbcd8;}.cls-4{fill:#cbd2e8;}.cls-5{fill:#e5ebf9;}</style></defs><title>자산 90re</title><g id="레이어_2" data-name="레이어 2"><g id="레이어_1-2" data-name="레이어 1"><path class="cls-1" d="M50,0a50,50,0,1,0,50,50A50,50,0,0,0,50,0ZM69.34,11.16a84.67,84.67,0,0,1,.19,10.92l-2-.1a82.47,82.47,0,0,0-.18-10.66ZM60,11.22l2,0c-.09,4.39-.07,6.33,0,8.2,0,1.1,0,2.19,0,3.75H60c0-1.54,0-2.62,0-3.71C59.91,17.6,59.89,15.64,60,11.22Zm-7.58-.15a56.51,56.51,0,0,1,.78,12.16l-2-.06a54.79,54.79,0,0,0-.75-11.75Zm-9.18,4.26c0-1.14.08-2.33,0-4.06l2,0c0,1.79,0,3,0,4.17,0,1.37-.08,2.65,0,4.72l-2,.11C43.14,18.07,43.18,16.74,43.22,15.33Zm-5.78-4.17a54.68,54.68,0,0,1,.15,8.77l-2-.09a52.73,52.73,0,0,0-.14-8.52ZM28,11.08a45.44,45.44,0,0,1,.83,12.15l-2-.06A43.77,43.77,0,0,0,26,11.41Zm62.66,28.8-.22-.05a6.46,6.46,0,0,1,.9,1.75,4.19,4.19,0,0,1-1.26,4.6,3.93,3.93,0,0,1-.66.43A25.06,25.06,0,0,1,90.87,55h0a25.12,25.12,0,0,1-6.66,17c2.73,1.76,4.28,3.76,4.28,5.88,0,7-16.6,12.61-37.08,12.61S14.33,84.91,14.33,78c0-1.88,1.22-3.66,3.39-5.26a25.36,25.36,0,0,1-5.87-9.48,6.27,6.27,0,0,1-1-12.35,25.3,25.3,0,0,1,9.8-16,1,1,0,0,1-.55-1.07l1.14-6.44a1,1,0,0,1,1.63-.6l5,4.21a.47.47,0,0,1,.1.1,24.6,24.6,0,0,1,6.84-1.21,1,1,0,0,1,.32-.53l5-4.2a1,1,0,0,1,1.62.59l.73,4.11H65.64a25.11,25.11,0,0,1,16.11,5.86c1.39-.15,3.25.38,5.65,1.63a9,9,0,0,1,1,.57,6.12,6.12,0,0,1,2.78.09,7.71,7.71,0,0,1,5.7,7.7l-2,0A5.74,5.74,0,0,0,90.65,39.88Z"/><path class="cls-1" d="M88.8,44.63a2.19,2.19,0,0,0,.63-2.43A4.9,4.9,0,0,0,88,40.11a3.39,3.39,0,0,0-1.26,1.13,25.25,25.25,0,0,1,1.92,3.5A.58.58,0,0,0,88.8,44.63Z"/><path class="cls-1" d="M84.28,38.08c.43.47.84,1,1.23,1.47a5.69,5.69,0,0,1,.66-.64h0A15.73,15.73,0,0,0,84.28,38.08Z"/><path class="cls-2" d="M80.65,75.28a7,7,0,0,1-5.51,7.37l-6.89,1.49h0L57.78,86.4,59,80.27H43.69a7,7,0,0,1-5,2.07H21L23.25,77a25.73,25.73,0,0,1-5.53-4.26c-2.17,1.6-3.39,3.38-3.39,5.26,0,7,16.6,12.61,37.08,12.61S88.49,84.91,88.49,78c0-2.12-1.55-4.12-4.28-5.88A26.41,26.41,0,0,1,80.65,75.28Z"/><path class="cls-3" d="M27.85,30.94l-5-4.21a1,1,0,0,0-1.63.6l-1.14,6.44a1,1,0,0,0,.55,1.07A24.88,24.88,0,0,1,28,31,.47.47,0,0,0,27.85,30.94Z"/><path class="cls-2" d="M84.28,38.08a15.73,15.73,0,0,1,1.89.83h0a5,5,0,0,1,.6-.42l.63-1.2C85,36,83.14,35.51,81.75,35.66A26.3,26.3,0,0,1,84.28,38.08Z"/><path class="cls-4" d="M87.19,44.83a1.32,1.32,0,0,0,1.46-.09,25.25,25.25,0,0,0-1.92-3.5c-.1.15-.19.3-.28.46A2.39,2.39,0,0,0,87.19,44.83Z"/><path class="cls-4" d="M86.2,46.57a4.36,4.36,0,0,1-1.53-5.78,6.73,6.73,0,0,1,.6-.93l.16-.21.08-.1c-.39-.5-.8-1-1.23-1.47-1.75-.63-2.5-.44-2.72-.34l-.85-1.81a3.38,3.38,0,0,1,1-.27A25.11,25.11,0,0,0,65.64,29.8H42.47l.41,2.33a1,1,0,0,1-1.33,1.11L35.41,31a1,1,0,0,1-.62-1.18A24.6,24.6,0,0,0,28,31a1,1,0,0,1-.4,1.6l-6.14,2.24a1,1,0,0,1-.78,0,25.3,25.3,0,0,0-9.8,16,5.82,5.82,0,0,1,1.45-.18H23.83a6.28,6.28,0,0,1,0,12.56H12.28c-.15,0-.29,0-.43,0a25.36,25.36,0,0,0,5.87,9.48,22.66,22.66,0,0,1,4.42-2.47L21,67.46h9.91a94.17,94.17,0,0,1,20.54-2.11A91.54,91.54,0,0,1,74.05,68a7.11,7.11,0,0,1,2.65.76,32.3,32.3,0,0,1,7.51,3.34,25.12,25.12,0,0,0,6.66-17h0a25.06,25.06,0,0,0-1.46-8.43,3.39,3.39,0,0,1-1.57.4A3.26,3.26,0,0,1,86.2,46.57Zm-57.64-.51-1.42,1.41-2.32-2.33-2.33,2.33-1.41-1.41,2.32-2.33-2.32-2.32L22.49,40l2.33,2.33L27.14,40l1.42,1.42-2.33,2.32Zm11,0-1.42,1.41-2.32-2.33-2.33,2.33-1.41-1.41,2.32-2.33-2.32-2.32L33.49,40l2.33,2.33L38.14,40l1.42,1.42-2.33,2.32ZM56,34H45.35V32H56Z"/><path class="cls-4" d="M80.34,73.48l.18.83a6.63,6.63,0,0,1,.13,1,26.41,26.41,0,0,0,3.56-3.21,32.3,32.3,0,0,0-7.51-3.34A7.06,7.06,0,0,1,80.34,73.48Z"/><path class="cls-4" d="M32.11,67.46h6.62a7,7,0,0,1,7,7v.84a7,7,0,0,1-2.06,5H59l.35-1.81-4.66-6.61,10.47-2.26h0L72,68.1a7.13,7.13,0,0,1,2-.13,91.54,91.54,0,0,0-22.64-2.62,94.17,94.17,0,0,0-20.54,2.11h1.24Z"/><path class="cls-4" d="M23.25,77l.88-2-2-4.68a22.66,22.66,0,0,0-4.42,2.47A25.73,25.73,0,0,0,23.25,77Z"/><path class="cls-4" d="M21.41,34.88l6.14-2.24A1,1,0,0,0,28,31a24.88,24.88,0,0,0-7.32,3.8A1,1,0,0,0,21.41,34.88Z"/><path class="cls-4" d="M85.43,39.65l-.16.21Z"/><path class="cls-4" d="M81.56,37.74c.22-.1,1-.29,2.72.34a26.3,26.3,0,0,0-2.53-2.42,3.38,3.38,0,0,0-1,.27Z"/><path class="cls-2" d="M26,57a6.3,6.3,0,0,1-6.28,6.28h4.11a6.28,6.28,0,0,0,0-12.56H19.72A6.29,6.29,0,0,1,26,57Z"/><path class="cls-3" d="M10.1,57a6.27,6.27,0,0,1,.38-2.12,25,25,0,0,1,.35-4,6.27,6.27,0,0,0,1,12.35,23.8,23.8,0,0,1-.84-3A6.25,6.25,0,0,1,10.1,57Z"/><path class="cls-3" d="M16.38,50.68h-4.1a5.82,5.82,0,0,0-1.45.18,25,25,0,0,0-.35,4A6.29,6.29,0,0,1,16.38,50.68Z"/><path class="cls-3" d="M16.38,63.24A6.29,6.29,0,0,1,11,60.18a23.8,23.8,0,0,0,.84,3c.14,0,.28,0,.43,0Z"/><path class="cls-3" d="M10.47,55c0-.07,0-.13,0-.2A6.13,6.13,0,0,0,11,60.18,24.9,24.9,0,0,1,10.47,55Z"/><path class="cls-3" d="M10.48,54.84c0,.07,0,.13,0,.2h0A24.9,24.9,0,0,0,11,60.18a6.29,6.29,0,0,0,5.37,3.06h3.34a6.28,6.28,0,1,0,0-12.56H16.38A6.29,6.29,0,0,0,10.48,54.84Zm7.52,1a1.18,1.18,0,0,1,1.18-1.18h0a1.18,1.18,0,0,1,1.19,1.18v2.37a1.18,1.18,0,0,1-1.19,1.18h0A1.18,1.18,0,0,1,18,58.24Zm-5.18-1.18h0A1.18,1.18,0,0,1,14,55.87v2.37a1.18,1.18,0,0,1-1.18,1.18h0a1.19,1.19,0,0,1-1.19-1.18V55.87A1.19,1.19,0,0,1,12.82,54.69Z"/><rect class="cls-2" x="18" y="54.69" width="2.37" height="4.74" rx="1.18" ry="1.18"/><rect class="cls-2" x="11.63" y="54.69" width="2.37" height="4.74" rx="1.18" ry="1.18"/><rect class="cls-2" x="32.3" y="44.6" width="3.29" height="2" transform="translate(-22.3 37.36) rotate(-45)"/><rect class="cls-2" x="36.04" y="40.86" width="3.29" height="2" transform="translate(-18.56 38.91) rotate(-45.01)"/><rect class="cls-2" x="36.69" y="43.96" width="2" height="3.29" transform="translate(-21.21 40) rotate(-45)"/><rect class="cls-2" x="32.95" y="40.22" width="2" height="3.29" transform="translate(-19.66 36.27) rotate(-45)"/><rect class="cls-2" x="34.82" y="42.73" width="2" height="2" transform="translate(-20.43 38.13) rotate(-45)"/><rect class="cls-2" x="25.04" y="40.86" width="3.29" height="2" transform="translate(-21.79 31.14) rotate(-45.01)"/><rect class="cls-2" x="21.3" y="44.6" width="3.29" height="2" transform="translate(-25.52 29.58) rotate(-45)"/><rect class="cls-2" x="25.69" y="43.96" width="2" height="3.29" transform="translate(-24.43 32.23) rotate(-45)"/><rect class="cls-2" x="21.95" y="40.22" width="2" height="3.29" transform="translate(-22.88 28.49) rotate(-45)"/><rect class="cls-2" x="23.82" y="42.73" width="2" height="2" transform="translate(-23.65 30.35) rotate(-45)"/><rect class="cls-2" x="45.35" y="31.95" width="10.65" height="2"/><path class="cls-5" d="M32.11,80v2.33h6.62a7,7,0,0,0,5-2.07h-8A25,25,0,0,1,32.11,80Z"/><path class="cls-5" d="M45.75,74.48a7,7,0,0,0-7-7H32.11V80a25,25,0,0,0,3.6.26h8a7,7,0,0,0,2.06-5Z"/><path class="cls-3" d="M25.18,78c-.66-.31-1.3-.64-1.93-1L21,82.34H31.68A7,7,0,0,1,25.18,78Z"/><path class="cls-3" d="M21,67.46l1.18,2.76a48.92,48.92,0,0,1,8.73-2.76Z"/><path class="cls-3" d="M23.25,77c.63.36,1.27.69,1.93,1a7,7,0,0,1-.52-2.63v-.84a7,7,0,0,1,7-7h-.81a48.92,48.92,0,0,0-8.73,2.76l2,4.68Z"/><path class="cls-3" d="M25.18,78a7,7,0,0,0,6.5,4.39h.43V80A25.26,25.26,0,0,1,25.18,78Z"/><path class="cls-3" d="M32.11,67.46h-.43a7,7,0,0,0-7,7v.84A7,7,0,0,0,25.18,78,25.26,25.26,0,0,0,32.11,80Z"/><path class="cls-5" d="M68.67,84.05l-.42.09h0l6.89-1.49a7,7,0,0,0,5.51-7.37,25.1,25.1,0,0,1-12.82,4.89Z"/><path class="cls-5" d="M74.05,68c.92.24,1.8.5,2.65.76A7.11,7.11,0,0,0,74.05,68Z"/><path class="cls-5" d="M72,68.1l-6.89,1.49h0l.42-.09,2.3,10.67a25.1,25.1,0,0,0,12.82-4.89,6.63,6.63,0,0,0-.13-1l-.18-.83a7.06,7.06,0,0,0-3.64-4.75c-.85-.26-1.73-.52-2.65-.76A7.13,7.13,0,0,0,72,68.1Z"/><path class="cls-3" d="M60.43,80.27H59L57.78,86.4l10.47-2.26A7,7,0,0,1,60.43,80.27Z"/><path class="cls-3" d="M59.91,78.76l-.18-.83a7,7,0,0,1,5.38-8.34L54.64,71.85l4.66,6.61L59,80.27h1.48A6.42,6.42,0,0,1,59.91,78.76Z"/><path class="cls-3" d="M67.83,80.17c-.72.06-1.45.1-2.19.1H60.43a7,7,0,0,0,7.82,3.87l.42-.09Z"/><path class="cls-3" d="M59.73,77.93l.18.83a6.42,6.42,0,0,0,.52,1.51h5.21c.74,0,1.47,0,2.19-.1L65.53,69.5l-.42.09A7,7,0,0,0,59.73,77.93Z"/><path class="cls-2" d="M35.59,19.84l2,.09a54.68,54.68,0,0,0-.15-8.77l-2,.16A52.73,52.73,0,0,1,35.59,19.84Z"/><path class="cls-2" d="M67.53,22l2,.1a84.67,84.67,0,0,0-.19-10.92l-2,.16A82.47,82.47,0,0,1,67.53,22Z"/><path class="cls-2" d="M45.25,20.11c-.11-2.07-.07-3.35,0-4.72,0-1.17.08-2.38,0-4.17l-2,0c0,1.73,0,2.92,0,4.06,0,1.41-.08,2.74,0,4.89Z"/><path class="cls-2" d="M51.18,23.17l2,.06a56.51,56.51,0,0,0-.78-12.16l-2,.35A54.79,54.79,0,0,1,51.18,23.17Z"/><path class="cls-2" d="M60,23.2h2c0-1.56,0-2.65,0-3.75,0-1.87,0-3.81,0-8.2l-2,0c-.09,4.42-.07,6.38,0,8.27C60,20.58,60,21.66,60,23.2Z"/><path class="cls-2" d="M26.82,23.17l2,.06A45.44,45.44,0,0,0,28,11.08l-2,.33A43.77,43.77,0,0,1,26.82,23.17Z"/><path class="cls-3" d="M42.47,29.8l-.73-4.11a1,1,0,0,0-1.62-.59l-5,4.2a1,1,0,0,0-.32.53c.3,0,.61,0,.92,0Z"/><path class="cls-3" d="M35.41,31l6.14,2.23a1,1,0,0,0,1.33-1.11l-.41-2.33H35.71c-.31,0-.62,0-.92,0A1,1,0,0,0,35.41,31Z"/><path class="cls-2" d="M85.51,39.55h0a5.7,5.7,0,0,1,.65-.65A5.69,5.69,0,0,0,85.51,39.55Z"/><path class="cls-2" d="M91.14,38a6.12,6.12,0,0,0-2.78-.09,9,9,0,0,0-1-.57l-.63,1.2a5,5,0,0,0-.6.42,5.7,5.7,0,0,0-.65.65c.43.55.83,1.11,1.21,1.68A3.39,3.39,0,0,1,88,40.11a4.9,4.9,0,0,1,1.44,2.09,2.19,2.19,0,0,1-.63,2.43.58.58,0,0,1-.15.11c.28.61.53,1.24.76,1.87a3.93,3.93,0,0,0,.66-.43,4.19,4.19,0,0,0,1.26-4.6,6.46,6.46,0,0,0-.9-1.75l.22.05a5.74,5.74,0,0,1,4.19,5.72l2,0A7.71,7.71,0,0,0,91.14,38Z"/><path class="cls-2" d="M85.27,39.86a6.73,6.73,0,0,0-.6.93A6.73,6.73,0,0,1,85.27,39.86Z"/><path class="cls-2" d="M85.43,39.65l.09-.09h0Z"/><path class="cls-2" d="M87.19,44.83a2.39,2.39,0,0,1-.74-3.13c.09-.16.18-.31.28-.46-.38-.57-.78-1.13-1.21-1.68l-.09.09-.16.21a6.73,6.73,0,0,0-.6.93,4.36,4.36,0,0,0,1.53,5.78,3.26,3.26,0,0,0,1.64.44,3.39,3.39,0,0,0,1.57-.4c-.23-.63-.48-1.26-.76-1.87A1.32,1.32,0,0,1,87.19,44.83Z"/></g></g></svg>