<svg width="18" height="19" viewBox="0 0 18 19" fill="none" xmlns="http://www.w3.org/2000/svg">
<path d="M0.469565 18.2227C0.782609 18.5358 1.17391 18.6923 1.60435 18.6923C2.03478 18.6923 2.42609 18.5358 2.73913 18.2227L9 11.9619L15.2609 18.2227C15.5739 18.5358 15.9652 18.6923 16.3957 18.6923C16.8261 18.6923 17.2174 18.5358 17.5304 18.2227C18.1565 17.5967 18.1565 16.5793 17.5304 15.9532L11.2696 9.69231L17.5304 3.43144C18.1565 2.80535 18.1565 1.78796 17.5304 1.16187C16.9043 0.535785 15.887 0.535785 15.2609 1.16187L9 7.42274L2.73913 1.16187C2.11304 0.535785 1.09565 0.535785 0.469565 1.16187C-0.156522 1.78796 -0.156522 2.80535 0.469565 3.43144L6.73043 9.69231L0.469565 15.9532C-0.156522 16.5793 -0.156522 17.5967 0.469565 18.2227Z" fill="black"/>
</svg>
