<svg width="16" height="16" viewBox="0 0 16 16" fill="none" xmlns="http://www.w3.org/2000/svg">
<path d="M8.91463 3.36829L1.93097 10.3519C1.823 10.46 1.74644 10.5953 1.70949 10.7435L0 16L5.25648 14.2905C5.40468 14.2536 5.54003 14.177 5.64806 14.069L12.6317 7.08538L8.91463 3.36829Z" fill="#898989"/>
<path d="M15.7534 2.7729L13.2271 0.24656C13.0691 0.0886877 12.855 0 12.6317 0C12.4084 0 12.1942 0.0886877 12.0363 0.24656L10.1053 2.17753L13.8224 5.89462L15.7534 3.96365C15.9113 3.80573 16 3.59158 16 3.36828C16 3.14498 15.9113 2.93082 15.7534 2.7729Z" fill="#898989"/>
</svg>
