<svg width="18" height="16" viewBox="0 0 18 16" fill="none" xmlns="http://www.w3.org/2000/svg">
<path fill-rule="evenodd" clip-rule="evenodd" d="M12.2082 0.0839343C12.734 0.0839343 13.259 0.158101 13.7582 0.325601C16.834 1.3256 17.9423 4.7006 17.0165 7.6506C16.4915 9.1581 15.6332 10.5339 14.509 11.6581C12.8999 13.2164 11.134 14.5998 9.23318 15.7914L9.02485 15.9173L8.80818 15.7831C6.90068 14.5998 5.12485 13.2164 3.50068 11.6498C2.38402 10.5256 1.52485 9.1581 0.991518 7.6506C0.0498511 4.7006 1.15818 1.3256 4.26735 0.308101C4.50902 0.224768 4.75818 0.166434 5.00818 0.133934H5.10818C5.34235 0.0997677 5.57485 0.0839343 5.80818 0.0839343H5.89985C6.42485 0.0997677 6.93318 0.191434 7.42568 0.358934H7.47485C7.50818 0.374768 7.53318 0.392268 7.54985 0.408101C7.73402 0.467268 7.90818 0.533934 8.07485 0.625601L8.39152 0.767268C8.46804 0.808078 8.55392 0.870435 8.62815 0.924327C8.67518 0.958472 8.71753 0.989219 8.74985 1.00893C8.76345 1.01696 8.77727 1.02502 8.7912 1.03316C8.86265 1.07487 8.93709 1.11832 8.99985 1.16643C9.92568 0.458934 11.0499 0.075601 12.2082 0.0839343ZM14.4248 6.08393C14.7665 6.07477 15.0582 5.8006 15.0832 5.44977V5.3506C15.1082 4.1831 14.4007 3.1256 13.3248 2.71727C12.9832 2.59977 12.6082 2.78393 12.4832 3.13393C12.3665 3.48393 12.5498 3.86727 12.8998 3.99143C13.434 4.19143 13.7915 4.71727 13.7915 5.29977V5.3256C13.7757 5.51643 13.8332 5.7006 13.9498 5.84227C14.0665 5.98393 14.2415 6.06643 14.4248 6.08393Z" fill="#FF8A45"/>
<path fill-rule="evenodd" clip-rule="evenodd" d="M12.2082 0.0839343C12.734 0.0839343 13.259 0.158101 13.7582 0.325601C16.834 1.3256 17.9423 4.7006 17.0165 7.6506C16.4915 9.1581 15.6332 10.5339 14.509 11.6581C12.8999 13.2164 11.134 14.5998 9.23318 15.7914L9.02485 15.9173L8.80818 15.7831C6.90068 14.5998 5.12485 13.2164 3.50068 11.6498C2.38402 10.5256 1.52485 9.1581 0.991518 7.6506C0.0498511 4.7006 1.15818 1.3256 4.26735 0.308101C4.50902 0.224768 4.75818 0.166434 5.00818 0.133934H5.10818C5.34235 0.0997677 5.57485 0.0839343 5.80818 0.0839343H5.89985C6.42485 0.0997677 6.93318 0.191434 7.42568 0.358934H7.47485C7.50818 0.374768 7.53318 0.392268 7.54985 0.408101C7.73402 0.467268 7.90818 0.533934 8.07485 0.625601L8.39152 0.767268C8.46804 0.808078 8.55392 0.870435 8.62815 0.924327C8.67518 0.958472 8.71753 0.989219 8.74985 1.00893C8.76345 1.01696 8.77727 1.02502 8.7912 1.03316C8.86265 1.07487 8.93709 1.11832 8.99985 1.16643C9.92568 0.458934 11.0499 0.075601 12.2082 0.0839343ZM14.4248 6.08393C14.7665 6.07477 15.0582 5.8006 15.0832 5.44977V5.3506C15.1082 4.1831 14.4007 3.1256 13.3248 2.71727C12.9832 2.59977 12.6082 2.78393 12.4832 3.13393C12.3665 3.48393 12.5498 3.86727 12.8998 3.99143C13.434 4.19143 13.7915 4.71727 13.7915 5.29977V5.3256C13.7757 5.51643 13.8332 5.7006 13.9498 5.84227C14.0665 5.98393 14.2415 6.06643 14.4248 6.08393Z" fill="url(#paint0_linear)" style="mix-blend-mode:soft-light"/>
<defs>
<linearGradient id="paint0_linear" x1="8.99992" y1="0.0838013" x2="8.99992" y2="15.9173" gradientUnits="userSpaceOnUse">
<stop stop-color="#FCBC02" stop-opacity="0.9"/>
<stop offset="1" stop-color="white" stop-opacity="0"/>
</linearGradient>
</defs>
</svg>
