<svg width="17" height="16" viewBox="0 0 17 16" fill="none" xmlns="http://www.w3.org/2000/svg">
<path fill-rule="evenodd" clip-rule="evenodd" d="M0.33735 7.7746C-0.688446 4.58807 0.676264 1.24781 3.73592 0.262742C5.20033 -0.208307 6.78495 -0.0388 8.11083 0.713529L8.33032 0.845245L8.55376 0.71279C9.81082 0.00108427 11.302 -0.189094 12.7053 0.19686L12.9267 0.262791C15.9873 1.24816 17.3576 4.59001 16.3281 7.78763C15.8119 9.27509 14.9653 10.6237 13.8478 11.7353C12.3273 13.2121 10.651 14.5162 8.85152 15.6227L8.66048 15.7415C8.46651 15.862 8.22134 15.8641 8.02537 15.7468L7.82073 15.6242C6.01878 14.5162 4.34251 13.2121 2.8167 11.7302C1.70445 10.6237 0.857891 9.27509 0.33735 7.7746ZM7.97613 2.0795L7.81219 1.96191C6.72545 1.21909 5.36107 1.01951 4.10959 1.42207C1.73953 2.18512 0.665046 4.81503 1.49337 7.38864C1.94895 8.70147 2.69586 9.89133 3.6715 10.862C5.12811 12.2766 6.73372 13.5257 8.45335 14.5832L8.33437 14.5082L8.72425 14.263C10.0854 13.3841 11.3675 12.3868 12.553 11.2851L12.993 10.8671C13.9739 9.89133 14.7208 8.70147 15.172 7.40168C16.0039 4.81749 14.9247 2.18572 12.5534 1.42226C11.2394 1.0007 9.80499 1.24216 8.69664 2.0719C8.48385 2.2312 8.19225 2.23428 7.97613 2.0795Z" fill="#222222"/>
</svg>
