<svg width="11" height="10" viewBox="0 0 11 10" fill="none" xmlns="http://www.w3.org/2000/svg">
<path d="M0.879348 9.49565C1.04891 9.66522 1.26087 9.75 1.49402 9.75C1.72717 9.75 1.93913 9.66522 2.1087 9.49565L5.5 6.10435L8.8913 9.49565C9.06087 9.66522 9.27283 9.75 9.50598 9.75C9.73913 9.75 9.95109 9.66522 10.1207 9.49565C10.4598 9.15652 10.4598 8.60544 10.1207 8.2663L6.72935 4.875L10.1207 1.4837C10.4598 1.14457 10.4598 0.593478 10.1207 0.254348C9.78152 -0.0847826 9.23044 -0.0847826 8.8913 0.254348L5.5 3.64565L2.1087 0.254348C1.76957 -0.0847826 1.21848 -0.0847826 0.879348 0.254348C0.540217 0.593478 0.540217 1.14457 0.879348 1.4837L4.27065 4.875L0.879348 8.2663C0.540217 8.60544 0.540217 9.15652 0.879348 9.49565Z" fill="#AAAAAA"/>
</svg>
